<svg version="1.2" xmlns="http://www.w3.org/2000/svg" viewBox="0 0 256 256" width="256" height="256">
    <style>
        .s0 { fill: #f9c600;stroke: #f9c600;stroke-width: 10.5 }
    </style>
    <path class="s0"
          d="m128 184.98c-31.51 0-56.98-25.47-56.98-56.98 0-31.51 25.47-56.98 56.98-56.98 31.51 0 56.98 25.47 56.98 56.98 0 31.51-25.47 56.98-56.98 56.98z"/>
    <path fill-rule="evenodd" class="s0"
          d="m128 5.5c4.72 0 8.55 3.83 8.55 8.55v22.79c0 4.72-3.83 8.54-8.55 8.54-4.72 0-8.55-3.82-8.55-8.54v-22.79c0-4.72 3.83-8.55 8.55-8.55zm-94.94 28.1c3.19-3.48 8.59-3.72 12.08-0.54l25.32 23.15c3.48 3.19 3.72 8.59 0.54 12.08-3.19 3.48-8.59 3.72-12.08 0.54l-25.32-23.15c-3.48-3.19-3.72-8.59-0.54-12.08zm189.88 0c3.18 3.49 2.94 8.89-0.54 12.08l-25.32 23.15c-3.49 3.18-8.89 2.94-12.08-0.54-3.18-3.49-2.94-8.89 0.54-12.08l25.32-23.15c3.49-3.18 8.89-2.94 12.08 0.54zm-217.44 94.4c0-4.72 3.83-8.55 8.55-8.55h22.79c4.72 0 8.54 3.83 8.54 8.55 0 4.72-3.82 8.55-8.54 8.55h-22.79c-4.72 0-8.55-3.83-8.55-8.55zm205.12 0c0-4.72 3.82-8.55 8.54-8.55h22.79c4.72 0 8.55 3.83 8.55 8.55 0 4.72-3.83 8.55-8.55 8.55h-22.79c-4.72 0-8.54-3.83-8.54-8.55zm-25.35 57.26c3.34-3.33 8.75-3.33 12.08 0l25.32 25.33c3.34 3.34 3.34 8.75 0 12.08-3.33 3.34-8.75 3.34-12.08 0l-25.32-25.32c-3.34-3.34-3.34-8.75 0-12.09zm-114.54 0.01c3.34 3.33 3.34 8.74 0 12.08l-25.32 25.32c-3.34 3.34-8.75 3.34-12.09 0-3.33-3.33-3.33-8.74 0-12.08l25.33-25.32c3.34-3.34 8.75-3.34 12.08 0zm57.27 25.35c4.72 0 8.55 3.82 8.55 8.54v22.79c0 4.72-3.83 8.55-8.55 8.55-4.72 0-8.55-3.83-8.55-8.55v-22.79c0-4.72 3.83-8.54 8.55-8.54z"/>
</svg>