<svg version="1.2" xmlns="http://www.w3.org/2000/svg" viewBox="0 0 256 256" width="256" height="256">
	<style>
		.s0 { fill: #000000;stroke: #000000;stroke-miterlimit:10 } 
		.s1 { fill: #ffffff } 
		.s2 { fill: #000000 } 
	</style>
	<path id="Shape 1" fill-rule="evenodd" class="s0" d="m128.25 256c-70.65 0-127.75-57.1-127.75-127.75 0-70.65 57.1-127.75 127.75-127.75 70.65 0 127.75 57.1 127.75 127.75 0 70.65-57.1 127.75-127.75 127.75z"/>
	<g id="a">
		<path id="Shape 2" fill-rule="evenodd" class="s1" d="m128.25 202.5c-43.83 0-79.25-35.42-79.25-79.25 0-43.83 35.42-79.25 79.25-79.25 43.83 0 79.25 35.42 79.25 79.25 0 43.83-35.42 79.25-79.25 79.25z"/>
		<path id="Shape 3" fill-rule="evenodd" class="s2" d="m128.25 168.04c-24.77 0-44.79-20.02-44.79-44.79 0-24.77 20.02-44.79 44.79-44.79 24.77 0 44.79 20.02 44.79 44.79 0 24.77-20.02 44.79-44.79 44.79z"/>
		<path id="Shape 4" fill-rule="evenodd" class="s1" d="m190.27 202.5c-9.53 0-18.25-8.53-18.35-17.17-0.11-9.53 8.82-17.29 18.35-17.29 9.53 0 17.23 7.7 17.23 17.23 0 9.53-7.7 17.23-17.23 17.23z"/>
		<path id="Shape 6" fill-rule="evenodd" class="s1" d=""/>
		<path id="Shape 7" fill-rule="evenodd" class="s1" d="m207.49 120.52l-0.04 64.68-18.86 0.49 1.22-64.87z"/>
	</g>
</svg>