<svg width="256" height="256" xmlns="http://www.w3.org/2000/svg">
    <ellipse ry="127.93103" rx="128.27585" id="svg_4" cy="127.65514" cx="127.65513" fill="#09090B"/>
    <path d="m188.84405,87.81819l1.79227,-2.7123l3.1305,1.89981l1.38602,0.99172c3.34557,2.58087 10.38322,9.17642 11.90067,20.12122c2.66451,-0.47794 5.35291,-0.71691 8.04132,-0.71691c6.38048,0 10.66998,1.48161 13.10747,2.7123l1.25459,0.68106l0.8125,0.53768l2.28216,1.86396l-0.7886,2.38969a24.42267,24.42267 0 0 1 -5.61578,8.72238c-3.46506,3.57259 -9.55877,7.7904 -19.22509,8.34003l-2.12683,0.05974l-1.76837,0c-4.42093,11.67365 -10.35932,24.82892 -20.33629,36.63401a84.60711,84.60711 0 0 1 -20.79034,17.77932a94.88279,94.88279 0 0 1 -30.45665,11.56612c-7.69481,1.49356 -15.50911,2.23436 -23.33536,2.21047c-17.32528,0 -32.61932,-3.44116 -42.02276,-9.46319c-8.39977,-5.36486 -14.85195,-14.12309 -19.18924,-26.01182a98.57487,98.57487 0 0 1 -5.50824,-33.81417a6.16541,6.16541 0 0 1 5.16174,-6.16541l0.8125,-0.05974l125.93686,0l1.09926,-0.08364l1.78032,-0.19118c3.05881,-0.40625 7.71871,-1.31433 10.99259,-3.22609c-3.9191,-6.48802 -5.03031,-14.0753 -3.20219,-22.15246a39.42995,39.42995 0 0 1 3.58454,-9.67826l1.29043,-2.23436zm-112.93693,14.91169l0.47794,0.08364a1.51746,1.51746 0 0 1 0.92003,0.97977l0.07169,0.47794l0,15.71224l-0.07169,0.48989a1.51746,1.51746 0 0 1 -0.93198,0.97977l-0.46599,0.07169l-16.87124,0a1.48161,1.48161 0 0 1 -1.39797,-1.05147l-0.08364,-0.47794l0,-15.73613l0.08364,-0.47794a1.51746,1.51746 0 0 1 0.93198,-0.99172l0.46599,-0.07169l16.87124,0l0,0.01195zm23.26367,0l0.46599,0.08364a1.51746,1.51746 0 0 1 0.93198,0.97977l0.07169,0.47794l0,15.71224l-0.08364,0.48989a1.51746,1.51746 0 0 1 -0.93198,0.97977l-0.46599,0.07169l-16.87124,0a1.49356,1.49356 0 0 1 -1.39797,-1.05147l-0.08364,-0.46599l0,-15.73613a1.5533,1.5533 0 0 1 1.01562,-1.46966l0.46599,-0.08364l16.88319,0l0,0.01195zm23.61017,0l0.46599,0.08364a1.51746,1.51746 0 0 1 0.92003,0.97977l0.08364,0.47794l0,15.71224l-0.08364,0.48989a1.51746,1.51746 0 0 1 -0.93198,0.97977l-0.46599,0.07169l-16.87124,0a1.48161,1.48161 0 0 1 -1.39797,-1.05147l-0.07169,-0.47794l0,-15.73613l0.07169,-0.47794a1.51746,1.51746 0 0 1 0.93198,-0.99172l0.46599,-0.07169l16.88319,0l0,0.01195zm23.32341,0l0.46599,0.08364a1.51746,1.51746 0 0 1 0.93198,0.97977l0.08364,0.47794l0,15.71224a1.5533,1.5533 0 0 1 -1.01562,1.46966l-0.47794,0.07169l-16.85929,0a1.48161,1.48161 0 0 1 -1.39797,-1.05147l-0.07169,-0.47794l0,-15.73613l0.07169,-0.47794a1.51746,1.51746 0 0 1 0.93198,-0.99172l0.47794,-0.07169l16.87124,0l-0.01195,0.01195zm23.53848,0l0.46599,0.08364a1.51746,1.51746 0 0 1 0.93198,0.97977l0.07169,0.47794l0,15.71224a1.5533,1.5533 0 0 1 -1.01562,1.46966l-0.46599,0.07169l-16.87124,0a1.48161,1.48161 0 0 1 -1.39797,-1.05147l-0.07169,-0.47794l0,-15.73613l0.07169,-0.47794a1.51746,1.51746 0 0 1 0.93198,-0.99172l0.47794,-0.07169l16.85929,0l0.01195,0.01195zm-70.49597,-22.6065l0.47794,0.08364a1.51746,1.51746 0 0 1 0.92003,0.96783l0.08364,0.48989l0,15.71224a1.5533,1.5533 0 0 1 -1.01562,1.46966l-0.46599,0.08364l-16.85929,0a1.49356,1.49356 0 0 1 -1.39797,-1.07536l-0.08364,-0.47794l0,-15.71224a1.5533,1.5533 0 0 1 1.01562,-1.45771l0.46599,-0.08364l16.87124,0l-0.01195,0zm23.61017,0l0.47794,0.08364a1.51746,1.51746 0 0 1 0.92003,0.96783l0.08364,0.48989l0,15.71224a1.5533,1.5533 0 0 1 -1.01562,1.46966l-0.46599,0.08364l-16.85929,0a1.49356,1.49356 0 0 1 -1.39797,-1.07536l-0.07169,-0.47794l0,-15.71224l0.07169,-0.47794a1.51746,1.51746 0 0 1 0.93198,-0.97977l0.46599,-0.08364l16.87124,0l-0.01195,0zm23.33536,0c0.64522,0 1.19485,0.44209 1.39797,1.05147l0.08364,0.48989l0,15.71224a1.5533,1.5533 0 0 1 -1.01562,1.46966l-0.47794,0.08364l-16.84734,0a1.49356,1.49356 0 0 1 -1.39797,-1.07536l-0.07169,-0.47794l0,-15.71224l0.07169,-0.47794a1.51746,1.51746 0 0 1 0.93198,-0.97977l0.47794,-0.08364l16.87124,0l-0.0239,0zm0,-22.6065c0.64522,0 1.19485,0.44209 1.39797,1.05147l0.08364,0.47794l0,15.72418a1.5533,1.5533 0 0 1 -1.01562,1.46966l-0.47794,0.07169l-16.84734,0a1.48161,1.48161 0 0 1 -1.39797,-1.05147l-0.07169,-0.47794l0,-15.73613l0.07169,-0.47794a1.51746,1.51746 0 0 1 0.93198,-0.97977l0.46599,-0.07169l16.87124,0l-0.01195,0z"
          fill="#ffffff"/>
</svg>