<svg version="1.2" xmlns="http://www.w3.org/2000/svg" viewBox="0 0 256 256" width="256" height="256">
	<style>
		.s0 { fill: #000000 } 
		.s1 { fill: #ffffff } 
	</style>
	<path id="Shape 1" fill-rule="evenodd" class="s0" d="m128 256c-70.78 0-128-57.22-128-128 0-70.78 57.22-128 128-128 70.78 0 128 57.22 128 128 0 70.78-57.22 128-128 128z"/>
	<path fill-rule="evenodd" class="s1" d="m92.55 90.67h15.96q17.51 0 17.51 22.22 0 6.59-1.9 11.32-1.9 4.73-6.66 7.6l10.7 34.55h-10.51l-9.4-32.88h-5.78v32.88h-9.92zm9.92 32.84h5.64q2.63 0 4.19-0.77 1.55-0.76 2.38-2.19 0.83-1.43 1.12-3.51 0.29-2.09 0.29-4.85 0-2.75-0.29-4.84-0.29-2.09-1.22-3.57c-0.61-0.98-1.5-1.72-2.58-2.19-1.07-0.47-2.56-0.71-4.37-0.71h-5.16zm31.52-32.84h14.89c2.75 0 5.12 0.39 7.2 1.17q3.11 1.17 5.64 4.14 0.63 0.74 1.16 1.55 0.54 0.81 0.99 1.69 0.44 0.89 0.78 1.82 0.34 0.93 0.57 1.9 0.98 3.99 0.98 10.8c0 3.33-0.25 5.71-0.6 8.08-0.36 2.38-1.51 6.51-6.04 9.31-2.82 1.75-6.89 2.38-10.58 2.38h-5.06v32.84h-9.92zm9.92 32.84h4.77q3.01 0 4.67-0.84 1.66-0.85 2.43-2.29 0.78-1.45 0.93-3.51 0.15-2.05 0.14-4.58 0-2.34-0.14-4.44-0.15-2.11-0.88-3.66-0.73-1.54-2.28-2.43-1.56-0.88-4.48-0.89h-5.15zm61.19 25.95q0 3.51-1.22 6.7-1.21 3.18-3.35 5.58-0.54 0.6-1.13 1.14-0.58 0.54-1.21 1.02-0.63 0.49-1.3 0.9-0.67 0.42-1.37 0.76-0.73 0.36-1.48 0.64-0.76 0.27-1.54 0.45-0.78 0.18-1.57 0.27-0.79 0.09-1.59 0.08-2.82 0-5.74-0.85-0.72-0.21-1.41-0.5-0.7-0.29-1.36-0.66-0.66-0.36-1.29-0.81-0.62-0.44-1.19-0.96-2.34-2.07-3.85-5.47-1.51-3.41-1.5-8.61v-41.7c0-2.45 0.39-4.78 1.16-6.91q1.17-3.19 3.31-5.53 2.14-2.33 5.11-3.67 2.97-1.33 6.57-1.33 3.4 0 6.32 1.33 2.92 1.33 5.06 3.72 2.14 2.4 3.35 5.74c0.81 2.24 1.22 4.64 1.22 7.29v4.25h-9.92v-3.62q0-3.19-1.65-5.52-0.39-0.57-0.89-1.02-0.5-0.45-1.09-0.75-0.58-0.31-1.22-0.45-0.63-0.15-1.28-0.12-3.7 0-4.91 2.5-1.22 2.5-1.22 6.32v38.69q0 3.3 1.31 5.53 1.32 2.23 4.72 2.24 0.98-0.01 2.09-0.38 1.12-0.37 2.05-1.22 0.93-0.86 1.51-2.34 0.58-1.49 0.58-3.72v-3.72h9.92zm19.44-21.04c0-2.77-2.05-5.01-4.57-5.01h-24.78v10.01h20.2v11.16h-3.11l7.74 11.92 7.75-11.92h-3.22zm-174.04 5.09v14.98q0 4.68 1.46 8.14 1.46 3.45 3.85 5.74 2.38 2.28 5.34 3.45 0.72 0.29 1.46 0.51 0.74 0.21 1.49 0.36 0.75 0.15 1.51 0.22 0.76 0.08 1.53 0.08 0.76 0 1.52-0.08 0.76-0.07 1.52-0.22 0.75-0.15 1.49-0.36 0.73-0.22 1.45-0.51 2.97-1.17 5.35-3.45 2.38-2.29 3.84-5.74 1.46-3.46 1.46-8.14v-24.96l-17.78-0.03-0.02 10.01h7.87v14.99q0 3.93-1.99 5.79-0.49 0.46-1.04 0.81-0.56 0.36-1.16 0.6-0.61 0.23-1.24 0.35-0.63 0.11-1.28 0.1-0.64 0.01-1.28-0.1-0.63-0.12-1.23-0.35-0.61-0.24-1.16-0.6-0.56-0.35-1.05-0.81-1.99-1.86-1.99-5.79v-39.97q0-3.93 1.99-5.79 0.49-0.46 1.05-0.82 0.55-0.35 1.16-0.59 0.6-0.24 1.23-0.35 0.64-0.12 1.28-0.11 0.65-0.01 1.28 0.11 0.63 0.11 1.24 0.35 0.6 0.24 1.16 0.59 0.55 0.36 1.04 0.82 1.99 1.86 1.99 5.79v3.83h9.93v-3.83q0-4.57-1.46-8.08-1.46-3.51-3.85-5.79-2.38-2.29-5.35-3.46-0.71-0.28-1.45-0.5-0.74-0.22-1.49-0.37-0.75-0.14-1.51-0.22-0.76-0.07-1.53-0.08-0.76 0.01-1.52 0.08-0.76 0.08-1.52 0.22-0.75 0.15-1.49 0.37-0.73 0.22-1.45 0.5-2.97 1.17-5.35 3.46-2.38 2.28-3.84 5.79-1.46 3.51-1.46 8.08v14.98h-10.14v-11.16h3.11l-7.74-11.93-7.75 11.93h3.22v16.16c0 2.77 2.05 5.01 4.58 5.01 0 0 14.72 0 14.72-0.01z"/>
</svg>