<svg width="256" height="256" xmlns="http://www.w3.org/2000/svg">

 <g>
  <title>Layer 1</title>
  <ellipse ry="127.93103" rx="128.27585" id="svg_4" cy="127.65514" cx="127.65513" fill="#09090B"/>
  <path opacity="0.9" fill="#ffffff" d="m93.78462,139.44745c-21.17998,-19.13903 -20.95208,-53.52578 -1.55104,-74.19066c21.78911,-23.2101 60.32918,-27.37999 90.73666,-12.22438c2.04351,1.02159 3.65415,-1.20615 1.66706,-2.80181c-27.16579,-25.53851 -75.97885,-24.34147 -105.20153,3.05044c-28.78345,26.97836 -29.20834,75.02866 -0.44306,101.06766c4.73089,4.29133 12.40479,6.14168 16.66967,0.9639c4.46282,-5.09044 2.49294,-11.91806 -1.87776,-15.86514z" clipRule="evenodd" fillRule="evenodd"/>
  <path opacity="0.9" fill="white" d="m116.55262,92.78404c19.13903,-21.17935 53.52578,-20.95176 74.19066,-1.55104c23.21042,21.78911 27.37999,60.32918 12.22406,90.73666c-1.02159,2.04351 1.20679,3.65415 2.80245,1.66706c25.53793,-27.16579 24.34071,-75.97885 -3.05044,-105.20089c-26.97836,-28.78376 -75.02866,-29.20866 -101.06798,-0.44338c-4.29133,4.73057 -6.14263,12.40479 -0.96454,16.66935c5.09044,4.46282 11.9187,2.49294 15.86578,-1.87776z" clipRule="evenodd" fillRule="evenodd"/>
  <path opacity="0.9" fill="white" d="m163.21252,115.55426c21.17998,19.13935 20.95271,53.52578 1.55168,74.19066c-21.7888,23.2101 -60.32918,27.37999 -90.73666,12.22438c-2.04351,-1.02128 -3.65415,1.20647 -1.66706,2.80181c27.16579,25.53793 75.97853,24.34103 105.20121,-3.05044c28.78313,-26.97805 29.20866,-75.02834 0.44274,-101.06766c-4.72993,-4.29101 -12.40479,-6.14168 -16.66871,-0.96422c-4.46346,5.09108 -2.49294,11.91838 1.8768,15.86546z" clipRule="evenodd" fillRule="evenodd"/>
  <path opacity="0.9" fill="white" d="m140.44772,162.21226c-19.13903,21.17966 -53.52578,20.9524 -74.19066,1.55136c-23.2101,-21.7888 -27.37999,-60.32886 -12.22438,-90.73634c1.02128,-2.04351 -1.20647,-3.65415 -2.80181,-1.66706c-25.53879,27.16579 -24.34173,75.97821 3.05012,105.20089c26.97836,28.78313 75.02897,29.20866 101.0683,0.44338c4.29101,-4.73057 6.14168,-12.40543 0.96358,-16.66935c-5.09044,-4.46282 -11.91774,-2.49294 -15.86514,1.87712z" clipRule="evenodd" fillRule="evenodd"/>
  <defs transform="translate(273, 272) translate(-272) translate(0, -271.999) translate(1, 0.00100708) scale(0.31875) translate(-1, -0.00100708) translate(3.13725, 0.00315947) scale(0.678161) translate(-3.13725, -0.00315947) translate(4.62612, 0.00465887) scale(0.71685) translate(-4.62612, -0.00465887) translate(6.45341, 0.0064991) scale(2.05702) translate(-6.45341, -0.0064991)">
   <clipPath id="svg_1">
    <rect fill="white" rx="100" height="799.998" width="800"/>
   </clipPath>
  </defs>
 </g>
</svg>