<svg version="1.2" xmlns="http://www.w3.org/2000/svg" viewBox="0 0 256 256" width="256" height="256">
	<style>
		.s0 { fill: #000000;stroke: #000000;stroke-miterlimit:10;stroke-width: 0 } 
		.s1 { fill: #ffffff } 
	</style>
	<g id="Layer 1">
		<path id="Shape 1" fill-rule="evenodd" class="s0" d="m128 256c-70.78 0-128-57.22-128-128 0-70.78 57.22-128 128-128 70.78 0 128 57.22 128 128 0 70.78-57.22 128-128 128z"/>
		<g id="Clip-Path: 20220328_[itop]_orange-gris-ss-baseline (2) 2">
			<g id="20220328_[itop]_orange-gris-ss-baseline (2) 2">
				<path id="Vector" class="s1" d="m226.37 149.24c-4.21 0-7.62-3.41-7.62-7.63 0-4.21 3.41-7.62 7.62-7.62 4.22 0 7.63 3.41 7.63 7.62 0 4.22-3.41 7.63-7.63 7.63z"/>
				<path id="Vector_2" class="s1" d="m47.69 100.74c-4.07 0-7.37-3.29-7.37-7.37 0-4.08 3.3-7.37 7.37-7.37 4.08 0 7.37 3.29 7.37 7.37 0 4.08-3.29 7.37-7.37 7.37z"/>
				<path id="Vector_3" class="s1" d="m63.1 144.97c-4.68 0-8.75-2.65-8.75-8.95v-0.61-14.64-10.88h-15.35v10.98h4.27v16.57c0 12.71 7.83 18.61 18.61 18.61 10.77 0 6.3-0.92 9.04-2.54v-13.22c-1.22 2.85-4.16 4.68-7.82 4.68zm89.87-11.69c0-13.63-10.57-24.1-23.59-24.1-13.01 0-23.69 9.86-23.58 24.71v2.84c0 4.88-3.56 8.24-8.65 8.24-5.08 0-8.74-2.75-8.74-8.95v-14.23h10.47v-11.08h-11.38c3.45-3.46 5.28-7.93 6.3-14.44h-11.18c-1.43 8.84-5.49 14.44-14.24 14.44v11.08h8.95v15.65c0 12.71 7.83 18.61 18.6 18.61 10.78 0 11.8-3.05 14.85-7.83 4.27 5.59 10.98 9.05 18.5 9.05 13.12 0 23.69-10.57 23.69-23.99zm-11.59 0c0 7.11-5.39 12.4-12.1 12.4-6.71 0-12.1-4.98-12.1-12.4 0-7.43 5.09-12.51 12.1-12.51 6.71 0 12.1 5.39 12.1 12.51zm64.56-1.02c0-14.13-9.86-24.2-21.76-24.2-11.89 0-13.42 3.97-14.94 7.12v-5.8h-11.19v73.31c6.21-0.92 9.56-2.95 11.09-9.56v-22.37c0 0 4.77 5.59 14.03 5.49 11.79-0.2 22.87-9.45 22.77-23.99zm-11.49-0.1c0 7.93-5.29 12.91-12.4 12.91-7.12 0-12.51-5.08-12.51-12.2v-1.22c0-7.02 5.7-12.61 12.51-12.61 6.81 0 12.4 5.19 12.4 13.12z"/>
			</g>
		</g>
	</g>
</svg>