<svg version="1.2" xmlns="http://www.w3.org/2000/svg" viewBox="0 0 256 256" width="256" height="256">
	<style>
		.s0 { fill: #000000 } 
		.s1 { fill: #ffffff } 
	</style>
	<g id="Layer 1">
		<path id="Shape 1" fill-rule="evenodd" class="s0" d="m128 256c-70.78 0-128-57.22-128-128 0-70.78 57.22-128 128-128 70.78 0 128 57.22 128 128 0 70.78-57.22 128-128 128z"/>
		<path class="s1" d="m123.72 111.3c47.8 0 81.15-12.1 81.15-27.05v-16.2c0-14.95-33.35-27.05-81.15-27.05-47.79 0-75.72 12.1-75.72 27.05v16.2c0 14.95 27.93 27.05 75.72 27.05z"/>
		<path class="s1" d="m113.9 175.95c-32.84-1.24-51.97-8.72-62.09-18.76-2.56 2.56-3.81 5.28-3.81 8.14v21.62c0 14.95 27.93 27.05 75.72 27.05 4.77 0 9.46-0.15 14.01-0.37-12.32-8.79-21.04-22.13-23.83-37.68z"/>
		<path class="s1" d="m112.88 165.11c0.07-14.3 5.13-27.42 13.63-37.61-1.03 0-1.98 0-3.08 0-38.78 0-60.55-7.99-71.62-18.91-2.56 2.56-3.81 5.28-3.81 8.13v21.63c0 13.71 23.75 25.07 64.88 26.76z"/>
		<path class="s1" d="m124.75 155.28c4.62-4.1 11.8-8.21 22.07-8.21 14.51 0 21.47 7.7 27.56 14.59 5.64 6.3 10.55 11.73 20.89 11.73 13.93 0 23.82-8.43 25.73-10.12-1.1-25.87-22.43-46.55-48.6-46.55-23.46 0-42.96 16.5-47.65 38.56z"/>
		<path class="s1" d="m169.32 166.21c-5.94-6.6-11.07-12.32-22.43-12.32-16.2 0-22.65 12.83-22.73 12.9l-0.36-0.15c0.73 26.25 22.21 47.36 48.67 47.36 24.56 0 44.86-18.18 48.16-41.78-5.35 3.59-14.14 7.99-25.29 7.99-13.48 0-20.16-7.41-26.02-14z"/>
	</g>
</svg>