<svg xmlns="http://www.w3.org/2000/svg" id="Layer_1" data-name="Layer 1" viewBox="-11.52 -11.52 151.04 151.04"
     preserveAspectRatio="xMidYMid meet"
     style="width: 200px; height: 200px; transform-origin: 50% 50% 0px; transform: scaleX(1) scaleY(1) rotate(0deg);">
    <circle id="svg-editor-bg-shape" cx="64" cy="64" r="75.52" fill="#000000" stroke="none"
            style="pointer-events: none;"/>
    <defs>
        <style>
            .cls-1 {
            fill-rule: evenodd;
            stroke-width: 0px;
            }
        </style>
    </defs>
    <path id="ii-editor-265257-mq6sa80a-k748io-Vector_1563" class="cls-1"
          d="m30.13,29.41l10.9-6.29,13.8-7.97c1.51-.87,3.07-1.52,4.7-1.96,1.62-.43,3.3-.65,5.04-.65s3.42.22,5.04.65c1.62.44,3.18,1.09,4.69,1.96l13.81,7.97,10.9,6.29c1.68.97,2.24,3.06,1.27,4.74s-3.06,2.24-4.74,1.27l-10.9-6.3-13.81-7.97c-.97-.56-1.97-.98-3.02-1.26-1.04-.28-2.12-.42-3.24-.42s-2.2.14-3.25.42c-1.04.28-2.05.7-3.02,1.26l-13.8,7.97-10.91,6.3c-1.68.97-3.76.41-4.73-1.27-.97-1.68-.41-3.77,1.27-4.74Zm6.48,13.26l23.56-13.6c.68-.39,1.38-.69,2.12-.88.73-.2,1.49-.3,2.28-.3s1.54.1,2.28.3c.73.19,1.44.49,2.12.88l23.55,13.6c.68.39,1.29.86,1.83,1.39.54.54,1,1.15,1.39,1.83.4.68.69,1.39.89,2.12.19.73.29,1.49.29,2.28v27.2c0,.78-.1,1.54-.29,2.28-.2.73-.49,1.44-.89,2.12-.39.68-.85,1.29-1.39,1.82-.54.54-1.15,1.01-1.83,1.4l-23.55,13.6c-.68.39-1.39.69-2.12.88-.74.2-1.5.3-2.28.3s-1.55-.1-2.28-.3c-.74-.19-1.44-.49-2.12-.88l-23.56-13.6c-.68-.39-1.29-.86-1.82-1.4-.54-.53-1-1.14-1.4-1.82-.39-.68-.68-1.39-.88-2.12-.2-.74-.3-1.5-.3-2.28v-27.2c0-.79.1-1.55.3-2.28.19-.73.49-1.44.88-2.12.4-.68.86-1.29,1.4-1.83.53-.53,1.14-1,1.82-1.39Zm-15.65,5.16c1.94,0,3.46,1.53,3.46,3.47v28.53c0,1.12.15,2.2.43,3.24.27,1.05.69,2.06,1.25,3.02,1.12,1.94,2.65,3.47,4.59,4.59l13.81,7.97,10.9,6.3c1.68.97,2.24,3.05,1.27,4.73-.97,1.68-3.06,2.24-4.74,1.27l-10.9-6.29-13.8-7.97c-1.51-.87-2.86-1.9-4.05-3.09-1.18-1.19-2.21-2.53-3.08-4.04-.87-1.5-1.52-3.07-1.96-4.69-.43-1.62-.65-3.3-.65-5.04v-28.53c0-1.94,1.53-3.47,3.47-3.47Zm90.68,32v-28.53c0-1.94-1.52-3.47-3.46-3.47s-3.47,1.53-3.47,3.47v28.53c0,1.12-.14,2.2-.42,3.24-.28,1.05-.7,2.06-1.26,3.02-.56.97-1.22,1.84-1.99,2.61s-1.63,1.42-2.6,1.98l-24.7,14.27c-1.69.97-2.24,3.05-1.27,4.73s3.05,2.24,4.73,1.27l10.91-6.29,13.8-7.97c3.01-1.74,5.39-4.12,7.13-7.13,1.73-3.01,2.6-6.25,2.6-9.73Z"
          fill="#FFFFFF" style="fill:#FFFFFF;stroke:none" stroke="none"/>
</svg>