<svg width="78" height="78" xmlns="http://www.w3.org/2000/svg" fill="#000000" preserveAspectRatio="xMidYMid" version="1.1">
 <defs>
  <radialGradient gradientTransform="translate(4.213 5.333) scale(.21333)" r="431.37" fy="-34.71" fx="259.68" cy="-34.71" cx="259.68" id="svg_23">
   <stop stop-color="#fff" offset="0"/>
   <stop stop-color="#000" offset="1"/>
  </radialGradient>
  <linearGradient gradientTransform="matrix(0.08742363750934601,0,0,0.08742363750934601,15.562234878540039,16.766407012939453)" y2="512.72" x2="277.23" y1="67.3" x1="74.77" gradientUnits="userSpaceOnUse" id="svg_26">
   <stop stop-color="#294ca7" offset="0"/>
   <stop stop-color="#96a7d4" offset="0.48"/>
   <stop stop-color="#e1e6f3" offset="0.84"/>
   <stop stop-color="#fff" offset="1"/>
  </linearGradient>
 </defs>
 <g>
  <title>Layer 1</title>
  <g stroke-width="0" id="SVGRepo_bgCarrier"/>
  <g stroke-linejoin="round" stroke-linecap="round" id="SVGRepo_tracerCarrier"/>
  <ellipse ry="38.53571" rx="38.82144" id="svg_3" cy="39.17857" cx="38.89287" stroke="#000" fill="#000000"/>

  <g id="svg_29">
   <path d="m30.25661,65.72454a49.88143,49.88143 0 0 0 25.50706,-13.67354l-35.28255,-35.285l0,39.18143l9.77548,9.77712zm0,0" fill="#ffffff"/>
   <path d="m20.48072,55.94701c21.63974,0 39.18143,-17.54128 39.18143,-39.18102l-39.18143,0l0,39.18102zm0,0" fill="#ffffff"/>
   <path d="m20.48072,55.94701l1.50808,1.50808c10.62747,-0.38931 20.22919,-4.86643 27.27578,-11.90974l-1.0741,-1.07287a39.05193,39.05193 0 0 1 -27.70976,11.47453zm0,0" fill="url(#svg_26)"/>
   <path d="m30.25661,65.72454a49.88143,49.88143 0 0 0 25.50706,-13.67354l-35.28255,-35.285l0,39.18143l9.77548,9.77712zm0,0" fill="#ffffff"/>
   <path d="m55.76408,52.051l-35.28336,-35.285l32.07541,38.21593a50.06748,50.06748 0 0 0 3.20795,-2.93092zm0,0" fill="#b5b5b5"/>
   <path d="m20.48072,16.766l27.70485,27.7069a40.45592,40.45592 0 0 0 0.73027,-0.75281l-28.43512,-26.95408zm0,0" fill="url(#svg_23)"/>
  </g>
 </g>
</svg>