<svg width="78" height="78" xmlns="http://www.w3.org/2000/svg" fill="#000000" preserveAspectRatio="xMidYMid"
     version="1.1">
    <ellipse ry="38.53571" rx="38.82144" id="svg_3" cy="39.17857" cx="38.89287" stroke="#000" fill="#000000"/>
    <path fill="#ffffff"
          d="m66.30572,51.68164l-9.89516,-13.72223l-16.01707,-22.21382c-0.81407,-1.12286 -2.69251,-1.12286 -3.50191,0l-16.01239,22.20915l-9.90218,13.72691a2.16384,2.16384 0 0 0 1.07607,3.31476l25.91457,8.48224l0.00468,0a2.15214,2.15214 0 0 0 1.33807,0l0.00468,0l25.91223,-8.48224c0.655,-0.21521 1.16964,-0.72518 1.38018,-1.38486a2.14278,2.14278 0 0 0 -0.30411,-1.92991l0.00468,0l-0.00234,0zm-27.66201,-30.98613l10.38641,14.4053l-9.7127,-3.18142c-0.07486,-0.02339 -0.15439,-0.01871 -0.22925,-0.03743a1.87143,1.87143 0 0 0 -0.22457,-0.03743c-0.07486,-0.00936 -0.14504,-0.03743 -0.21989,-0.03743s-0.14504,0.02807 -0.21989,0.03743a1.73107,1.73107 0 0 0 -0.22457,0.03743c-0.07486,0.01404 -0.15439,0.01404 -0.22457,0.03743l-9.64954,3.16505l-0.06082,0.01871l10.38641,-14.4053l-0.00468,0l-0.00234,-0.00234zm-14.67432,20.35176l11.30809,-3.70308l1.20707,-0.393l0,21.498l-20.2769,-6.63654l7.7594,-10.7607l0.00234,-0.00468zm16.83581,17.39724l0,-21.49099l12.51516,4.09842l7.75706,10.75602l-20.27222,6.63888l0,-0.00234z"/>
</svg>