<svg width="78" height="78" xmlns="http://www.w3.org/2000/svg" fill="#000000" preserveAspectRatio="xMidYMid" version="1.1">

 <g>
  <title>Layer 1</title>
  <g stroke-width="0" id="SVGRepo_bgCarrier"/>
  <g stroke-linejoin="round" stroke-linecap="round" id="SVGRepo_tracerCarrier"/>
  <ellipse ry="38" rx="38.28573" id="svg_3" cy="39" cx="39.07144" stroke="#000" fill="#000000"/>
  <g>
   <path transform="translate(13.5, 1.60156)" fill="#010101" d="m14.75697,15.54275c0.83209,-0.00287 1.66418,-0.00574 2.52148,-0.0087c1.75847,-0.00204 3.51697,0.00349 5.2754,0.01602c2.69322,0.01606 5.38494,0.00016 8.07812,-0.01904c1.70834,0.00198 3.41667,0.00583 5.125,0.01172c1.20946,-0.00911 1.20946,-0.00911 2.44336,-0.0184c5.59622,0.07048 5.59622,0.07048 7.76871,1.70477c2.24106,2.97907 1.71337,6.627 1.68637,10.21207c0.00287,0.83209 0.00574,1.66418 0.0087,2.52148c0.00204,1.75847 -0.00349,3.51697 -0.01603,5.27539c-0.01605,2.69323 -0.00015,5.38495 0.01905,8.07813c-0.00199,1.70833 -0.00583,3.41667 -0.01172,5.125c0.00911,1.20946 0.00911,1.20946 0.0184,2.44336c-0.07048,5.59621 -0.07048,5.59621 -1.70477,7.7687c-2.97907,2.24106 -6.627,1.71338 -10.21207,1.68638c-0.83209,0.00287 -1.66418,0.00574 -2.52148,0.00869c-1.75847,0.00204 -3.51697,-0.00349 -5.27539,-0.01602c-2.69323,-0.01605 -5.38495,-0.00015 -8.07813,0.01904c-1.70834,-0.00198 -3.41667,-0.00582 -5.125,-0.01171c-0.80631,0.00607 -1.61262,0.01214 -2.44336,0.0184c-5.59622,-0.07048 -5.59622,-0.07048 -7.76871,-1.70478c-2.24106,-2.97907 -1.71337,-6.62699 -1.68637,-10.21206c-0.00287,-0.83209 -0.00574,-1.66418 -0.0087,-2.52149c-0.00204,-1.75847 0.00349,-3.51696 0.01603,-5.27539c0.01605,-2.69322 0.00015,-5.38495 -0.01905,-8.07812c0.00199,-1.70834 0.00583,-3.41667 0.01172,-5.125c-0.00607,-0.80631 -0.01214,-1.61262 -0.0184,-2.44336c0.07048,-5.59622 0.07048,-5.59622 1.70477,-7.76871c2.97907,-2.24106 6.627,-1.71337 10.21207,-1.68637z"/>
   <path transform="translate(17.3125, 10.8672)" fill="#FDFDFD" d="m14.75697,15.54275c1.07508,-0.00129 2.15016,-0.00258 3.25781,-0.00391c1.1318,0.00387 2.2636,0.00774 3.42969,0.01172c1.1318,-0.00386 2.26359,-0.00773 3.42969,-0.01172c1.07508,0.00129 2.15015,0.00258 3.25781,0.00391c1.4908,0.00169 1.4908,0.00169 3.01172,0.00342c2.30078,0.12939 2.30078,0.12939 3.30078,1.12939c0.09946,1.76859 0.1308,3.54112 0.13281,5.3125c0.00194,1.61262 0.00194,1.61262 0.00391,3.25782c-0.00387,1.13179 -0.00774,2.26359 -0.01172,3.42968c0.0058,1.6977 0.0058,1.6977 0.01172,3.42969c-0.00129,1.07508 -0.00258,2.15016 -0.00391,3.25781c-0.00113,0.99387 -0.00225,1.98774 -0.00342,3.01172c-0.12939,2.30078 -0.12939,2.30078 -1.12939,3.30078c-1.76859,0.09947 -3.54111,0.1308 -5.3125,0.13282c-1.07508,0.00128 -2.15016,0.00257 -3.25781,0.0039c-1.1318,-0.00387 -2.2636,-0.00773 -3.42969,-0.01172c-1.1318,0.00387 -2.26359,0.00774 -3.42969,0.01172c-1.07508,-0.00129 -2.15015,-0.00258 -3.25781,-0.0039c-0.99387,-0.00113 -1.98773,-0.00226 -3.01172,-0.00342c-2.30078,-0.1294 -2.30078,-0.1294 -3.30078,-1.1294c-0.09946,-1.76859 -0.1308,-3.54111 -0.13281,-5.3125c-0.00129,-1.07508 -0.00258,-2.15015 -0.00391,-3.25781c0.0058,-1.6977 0.0058,-1.6977 0.01172,-3.42969c-0.00387,-1.13179 -0.00773,-2.26359 -0.01172,-3.42968c0.00129,-1.07508 0.00258,-2.15016 0.00391,-3.25782c0.00113,-0.99386 0.00225,-1.98773 0.00342,-3.01172c0.24494,-4.35534 2.63659,-3.42927 6.44189,-3.43359z"/>
   <path transform="translate(13.5, 1.60156)" fill="#E4E4E4" d="m14.75697,15.54275c0.83209,-0.00287 1.66418,-0.00574 2.52148,-0.0087c1.75847,-0.00204 3.51697,0.00349 5.2754,0.01602c2.69322,0.01606 5.38494,0.00016 8.07812,-0.01904c1.70834,0.00198 3.41667,0.00583 5.125,0.01172c1.20946,-0.00911 1.20946,-0.00911 2.44336,-0.0184c5.59622,0.07048 5.59622,0.07048 7.76871,1.70477c2.24106,2.97907 1.71337,6.627 1.68637,10.21207c0.00287,0.83209 0.00574,1.66418 0.0087,2.52148c0.00204,1.75847 -0.00349,3.51697 -0.01603,5.27539c-0.01605,2.69323 -0.00015,5.38495 0.01905,8.07813c-0.00199,1.70833 -0.00583,3.41667 -0.01172,5.125c0.00911,1.20946 0.00911,1.20946 0.0184,2.44336c-0.07048,5.59621 -0.07048,5.59621 -1.70477,7.7687c-2.97907,2.24106 -6.627,1.71338 -10.21207,1.68638c-0.83209,0.00287 -1.66418,0.00574 -2.52148,0.00869c-1.75847,0.00204 -3.51697,-0.00349 -5.27539,-0.01602c-2.69323,-0.01605 -5.38495,-0.00015 -8.07813,0.01904c-1.70834,-0.00198 -3.41667,-0.00582 -5.125,-0.01171c-0.80631,0.00607 -1.61262,0.01214 -2.44336,0.0184c-5.59622,-0.07048 -5.59622,-0.07048 -7.76871,-1.70478c-2.24106,-2.97907 -1.71337,-6.62699 -1.68637,-10.21206c-0.00287,-0.83209 -0.00574,-1.66418 -0.0087,-2.52149c-0.00204,-1.75847 0.00349,-3.51696 0.01603,-5.27539c0.01605,-2.69322 0.00015,-5.38495 -0.01905,-8.07812c0.00199,-1.70834 0.00583,-3.41667 0.01172,-5.125c-0.00607,-0.80631 -0.01214,-1.61262 -0.0184,-2.44336c0.07048,-5.59622 0.07048,-5.59622 1.70477,-7.76871c2.97907,-2.24106 6.627,-1.71337 10.21207,-1.68637zm-8.45166,3.44678c-1.64894,3.06977 -1.47549,6.17805 -1.44678,9.57666c-0.00287,0.7433 -0.00574,1.48661 -0.0087,2.25244c-0.00203,1.57016 0.00349,3.14034 0.01603,4.71045c0.01605,2.40357 0.00015,4.80546 -0.01905,7.20898c0.00199,1.52605 0.00583,3.05209 0.01172,4.57813c-0.00607,0.71881 -0.01214,1.43762 -0.0184,2.17822c0.03889,2.75837 0.14478,4.94841 1.48105,7.39624c2.99184,1.62365 5.98654,1.49818 9.30688,1.48413c0.71874,0.00524 1.43748,0.01048 2.178,0.01589c1.51886,0.00641 3.03777,0.00508 4.55662,-0.00344c2.32049,-0.0085 4.6385,0.02024 6.95874,0.052c1.47722,0.00162 2.95443,0.00104 4.43164,-0.00195c1.03767,0.01685 1.03767,0.01685 2.0963,0.03404c3.17187,-0.04572 5.15648,-0.36923 7.8456,-2.09214c2.10399,-3.28392 2.11946,-6.16347 2.0581,-9.9419c0.00219,-1.07954 0.00219,-1.07954 0.00441,-2.18089c-0.00165,-1.51714 -0.01318,-3.03429 -0.03395,-4.55129c-0.029,-2.32242 -0.02059,-4.64256 -0.00757,-6.96508c-0.00623,-1.47593 -0.01462,-2.95184 -0.02539,-4.42774c0.00294,-0.6938 0.00588,-1.3876 0.0089,-2.10243c-0.05271,-2.69113 -0.19683,-4.81599 -1.49303,-7.20445c-3.06394,-1.67261 -6.17189,-1.4914 -9.57446,-1.46265c-0.74331,-0.00287 -1.48661,-0.00574 -2.25244,-0.0087c-1.57016,-0.00204 -3.14034,0.00349 -4.71045,0.01602c-2.40357,0.01606 -4.80546,0.00015 -7.20898,-0.01904c-1.52605,0.00198 -3.05209,0.00583 -4.57813,0.01172c-0.71881,-0.00607 -1.43763,-0.01215 -2.17822,-0.0184c-2.75083,0.03878 -4.94926,0.14959 -7.39844,1.46518z"/>
   <path transform="translate(21.25, 17.8672)" fill="#1D1D1D" d="m14.75697,15.54275c0.9075,0.00258 1.815,0.00516 2.75,0.00781c1.36125,-0.00386 1.36125,-0.00386 2.75,-0.00781c2.25,0.13281 2.25,0.13281 3.25,1.13281c0.09824,1.66429 0.12974,3.33282 0.125,5c0.00258,0.9075 0.00516,1.815 0.00781,2.75c-0.13281,2.25 -0.13281,2.25 -1.13281,3.25c-1.66429,0.09824 -3.33282,0.12974 -5,0.125c-1.36125,0.00387 -1.36125,0.00387 -2.75,0.00782c-2.25,-0.13282 -2.25,-0.13282 -3.25,-1.13282c-0.09824,-1.66429 -0.12974,-3.33282 -0.125,-5c-0.00258,-0.9075 -0.00516,-1.815 -0.00781,-2.75c0.17933,-3.03818 0.34463,-3.20347 3.38281,-3.38281z"/>
   <path transform="translate(13.5, 1.60156)" fill="#BDBDBD" d="m14.75697,15.54275c0.83209,-0.00287 1.66418,-0.00574 2.52148,-0.0087c1.75847,-0.00204 3.51697,0.00349 5.2754,0.01602c2.69322,0.01606 5.38494,0.00016 8.07812,-0.01904c1.70834,0.00198 3.41667,0.00583 5.125,0.01172c1.20946,-0.00911 1.20946,-0.00911 2.44336,-0.0184c5.66305,0.07132 5.66305,0.07132 7.79297,1.9411c0.41701,0.48699 0.83402,0.97399 1.26367,1.47574c-0.33,0.66 -0.66,1.32 -1,2c-0.5,-0.32452 -0.99999,-0.64905 -1.51514,-0.9834c-3.39784,-1.39012 -6.63033,-1.30263 -10.24267,-1.28223c-0.74426,-0.00191 -1.48853,-0.00382 -2.25534,-0.0058c-1.56838,-0.00135 -3.13676,0.00231 -4.70511,0.01069c-2.40537,0.01073 -4.80999,0.00007 -7.21533,-0.0127c-1.52474,0.00132 -3.04949,0.00388 -4.57422,0.00781c-1.08126,-0.00607 -1.08126,-0.00607 -2.18436,-0.01227c-4.10655,-0.08456 -4.10655,-0.08456 -7.30783,2.2779c-0.24501,2.43176 -0.37325,4.75865 -0.41406,7.19531c-0.01937,0.70744 -0.03873,1.41489 -0.05869,2.14377c-0.05983,2.26185 -0.10619,4.52375 -0.15225,6.78592c-0.03818,1.53257 -0.07723,3.06512 -0.11719,4.59765c-0.09609,3.75894 -0.18011,7.51798 -0.25781,11.27735c-0.33,0 -0.66,0 -1,0c-0.2171,-4.78658 -0.41395,-9.57339 -0.59204,-14.36157c-0.06344,-1.62881 -0.13242,-3.25741 -0.20703,-4.88575c-0.10629,-2.34042 -0.19265,-4.68085 -0.27515,-7.02221c-0.03736,-0.72823 -0.07471,-1.45645 -0.1132,-2.20675c-0.15104,-5.07603 -0.15104,-5.07603 1.46664,-7.21582c2.97928,-2.26445 6.624,-1.73343 10.22078,-1.70634z"/>
   <path transform="translate(44, 6)" fill="#D6D6D6" d="m14.75697,15.54275c0.66,0.33 1.32,0.66 2,1c0.07414,5.07199 0.12859,10.14366 0.16479,15.21606c0.0151,1.72565 0.03557,3.45125 0.06153,5.17676c0.03637,2.47983 0.0534,4.95916 0.06665,7.43921c0.01548,0.77197 0.03097,1.54395 0.04692,2.33931c0.00169,5.37635 0.00169,5.37635 -1.8582,7.83916c-0.48896,0.32653 -0.97792,0.65307 -1.48169,0.9895c-2,-1 -2,-1 -3,-3c0.48445,-0.33556 0.96889,-0.67112 1.46802,-1.01685c2.30484,-2.98362 2.0119,-6.08923 2.0437,-9.71362c0.01795,-0.75042 0.0359,-1.50084 0.0544,-2.274c0.05413,-2.39429 0.088,-4.78837 0.12138,-7.18303c0.03317,-1.62438 0.06766,-3.24873 0.10352,-4.87305c0.08496,-3.97967 0.15175,-7.95928 0.20898,-11.93945z"/>
  </g>
 </g>
</svg>