<svg version="1.2" xmlns="http://www.w3.org/2000/svg" viewBox="0 0 256 256" width="256" height="256">
	<style>
		.s0 { fill: #000000;stroke: #000000;stroke-miterlimit:10 } 
		.s1 { fill: #ffffff;stroke: #ffffff;stroke-miterlimit:10 } 
		.s2 { fill: #3f3f3f;stroke: #3f3f3f;stroke-miterlimit:10 } 
		.s3 { fill: #707070;stroke: #707070;stroke-miterlimit:10 } 
		.s4 { fill: #b8bab8;stroke: #b8bab8;stroke-miterlimit:10 } 
	</style>
	<path id="Shape 1" fill-rule="evenodd" class="s0" d="m128 256c-70.78 0-128-57.22-128-128 0-70.78 57.22-128 128-128 70.78 0 128 57.22 128 128 0 70.78-57.22 128-128 128z"/>
	<g id="molecule_1">
		<path id="Shape 3" fill-rule="evenodd" class="s1" d="m128.66 182.19c9.93 4.26 14.51 15.73 10.25 25.66-4.27 9.93-15.74 14.51-25.67 10.25-9.93-4.27-14.51-15.74-10.24-25.67 4.26-9.93 15.73-14.51 25.66-10.24z"/>
		<path id="Shape 2" fill-rule="evenodd" class="s2" d="m132.9 127.56c21.2 9.11 30.97 33.6 21.87 54.79-9.11 21.2-33.6 30.97-54.79 21.87-21.2-9.1-30.97-33.6-21.87-54.79 9.1-21.2 33.6-30.97 54.79-21.87z"/>
		<path id="Shape 4" fill-rule="evenodd" class="s1" d="m102.11 179.46c0.94 3.73 4.77 20.24-7.24 23.58-12.01 3.35-24.43-3.66-27.77-15.68-3.34-12.01 3.86-23.53 15.87-26.88 12.02-3.34 18.12 14.98 19.14 18.98z"/>
	</g>
	<g id="molecule_2">
		<path id="Shape 3" fill-rule="evenodd" class="s1" d="m173.43 85.07c-4.03-8.51-0.41-18.63 8.09-22.66 8.5-4.02 18.63-0.4 22.65 8.1 4.03 8.5 0.41 18.63-8.09 22.65-8.5 4.03-18.63 0.41-22.65-8.09z"/>
		<path id="Shape 2" fill-rule="evenodd" class="s3" d="m139.21 118.28c-8.59-18.15-0.87-39.76 17.28-48.36 18.14-8.59 39.76-0.86 48.35 17.28 8.59 18.15 0.87 39.76-17.28 48.36-18.15 8.59-39.76 0.86-48.35-17.28z"/>
		<path id="Shape 4" fill-rule="evenodd" class="s1" d="m189.19 102.14c1.53-2.99 8.54-15.96 18.3-11.23 9.77 4.74 13.84 16.46 9.1 26.22-4.74 9.77-16.08 13.14-25.84 8.41-9.77-4.74-3.2-20.21-1.56-23.4z"/>
	</g>
	<g id="molecule_3">
		<path id="Shape 3" fill-rule="evenodd" class="s1" d="m76.54 83.32c-8.71 3.55-18.62-0.61-22.17-9.32-3.56-8.71 0.61-18.62 9.32-22.18 8.71-3.55 18.62 0.62 22.17 9.33 3.56 8.7-0.61 18.62-9.32 22.17z"/>
		<path id="Shape 2" fill-rule="evenodd" class="s4" d="m107.83 119.31c-18.59 7.58-39.75-1.31-47.34-19.9-7.58-18.59 1.31-39.75 19.9-47.34 18.59-7.58 39.75 1.31 47.34 19.9 7.58 18.59-1.31 39.75-19.9 47.34z"/>
		<path id="Shape 4" fill-rule="evenodd" class="s1" d="m94.45 68.52c-2.9-1.7-15.47-9.41-10.21-18.9 5.27-9.49 17.19-12.91 26.68-7.64 9.5 5.26 12.24 16.77 6.98 26.26-5.26 9.49-20.35 2.09-23.45 0.28z"/>
	</g>
</svg>