<svg version="1.2" xmlns="http://www.w3.org/2000/svg" viewBox="0 0 256 256" width="256" height="256">
	<style>
		.s0 { fill: #000000 } 
		.s1 { fill: #ffffff } 
	</style>
	<g id="Layer 1">
		<path id="Shape 1" fill-rule="evenodd" class="s0" d="m128 256c-70.78 0-128-57.22-128-128 0-70.78 57.22-128 128-128 70.78 0 128 57.22 128 128 0 70.78-57.22 128-128 128z"/>
		<path class="s1" d="m206.44 119.78l-31.83-55.07c-2.76-4.78-9.54-8.71-15.08-8.71h-63.59c-5.51 0-12.32 3.93-15.08 8.71l-31.79 55.07c-2.76 4.79-2.76 12.61 0 17.39l31.79 55.11c2.76 4.78 9.53 8.71 15.08 8.71h63.62c5.51 0 12.29-3.93 15.08-8.71l31.8-55.11c2.75-4.78 2.75-12.6 0-17.39zm-85.58-33.31c0-3.61 2.95-6.56 6.56-6.56 3.61 0 6.55 2.95 6.55 6.56v39.17c0 3.61-2.94 6.56-6.55 6.56-3.61 0-6.56-2.95-6.56-6.56zm6.56 83.64c-24.52 0-44.47-19.95-44.47-44.46 0.03-14.06 6.68-27.27 17.96-35.69 2.6-1.93 6.24-1.4 8.17 1.2 1.93 2.6 1.39 6.24-1.2 8.17-14.54 10.8-17.58 31.36-6.78 45.89 10.8 14.54 31.35 17.58 45.89 6.78 8.33-6.18 13.24-15.96 13.24-26.35-0.03-10.42-4.97-20.21-13.37-26.41-2.59-1.9-3.13-5.58-1.23-8.17 1.9-2.6 5.57-3.14 8.17-1.24 11.37 8.39 18.05 21.69 18.08 35.82 0 24.54-19.95 44.46-44.46 44.46z"/>
	</g>
</svg>