<svg version="1.2" xmlns="http://www.w3.org/2000/svg" viewBox="0 0 256 256" width="256" height="256">
	<style>
		.s0 { fill: #000000;stroke: #000000;stroke-miterlimit:10 } 
		.s1 { fill: #ffffff } 
	</style>
	<g id="Layer 1">
		<path id="Shape 1" fill-rule="evenodd" class="s0" d="m128 256c-70.78 0-128-57.22-128-128 0-70.78 57.22-128 128-128 70.78 0 128 57.22 128 128 0 70.78-57.22 128-128 128z"/>
		<path id="ZABBIX" class="s1" aria-label="ZABBIX"  d="m60.4 146h-30.8v-6.9l19.9-24.6h-17.7v-6.4h27.8v5.9l-20.8 25.6h21.6zm23.5-37.9l15.2 37.9h-8.4l-3.3-8.6h-15.1l-3.2 8.6h-8.1l14.8-37.9zm-9.3 22.9h10.4l-5.3-14.1zm29.3 15v-37.9h15.2q4.5 0 6.7 0.4 2.2 0.3 3.9 1.5 1.8 1.2 3 3.2 1.1 2 1.1 4.4 0 2.7-1.4 4.9-1.5 2.3-3.9 3.4 3.5 1 5.3 3.4 1.9 2.4 1.9 5.7 0 2.6-1.2 5.1-1.2 2.4-3.3 3.9-2.1 1.4-5.1 1.8-2 0.2-9.3 0.2zm12.1-31.6h-4.4v8.8h5q4.5 0 5.6-0.2 1.9-0.2 3-1.3 1.2-1.1 1.2-3 0-1.7-1-2.8-1-1.1-2.9-1.4-1.1-0.1-6.5-0.1zm1.8 15.1h-6.2v10.1h7.1q4.1 0 5.2-0.2 1.7-0.3 2.8-1.5 1.1-1.2 1.1-3.2 0-1.7-0.8-2.9-0.9-1.2-2.5-1.8-1.5-0.5-6.7-0.5zm24.1 16.5v-37.9h15.2q4.5 0 6.7 0.4 2.2 0.3 3.9 1.5 1.8 1.2 3 3.2 1.1 2 1.1 4.4 0 2.7-1.4 4.9-1.4 2.3-3.9 3.4 3.5 1 5.3 3.4 1.9 2.4 1.9 5.7 0 2.6-1.2 5.1-1.2 2.4-3.3 3.9-2.1 1.4-5.1 1.8-1.9 0.2-9.3 0.2zm12.1-31.6h-4.4v8.8h5q4.5 0 5.6-0.2 1.9-0.2 3.1-1.3 1.1-1.1 1.1-3 0-1.7-1-2.8-0.9-1.1-2.9-1.4-1.1-0.1-6.5-0.1zm1.8 15.1h-6.2v10.1h7.1q4.1 0 5.2-0.2 1.7-0.3 2.8-1.5 1.1-1.2 1.1-3.2 0-1.7-0.8-2.9-0.9-1.2-2.4-1.8-1.6-0.5-6.8-0.5zm31.5 16.5h-7.6v-37.9h7.6zm12.9 0h-9.1l12.9-19.8-11.7-18.1h8.9l7.6 12.1 7.5-12.1h8.9l-11.8 18.4 12.9 19.5h-9.2l-8.4-13.1z"/>
	</g>
</svg>