<svg version="1.2" xmlns="http://www.w3.org/2000/svg" viewBox="0 0 800 800" width="256" height="256">
	<style>
		.s0 { fill: #ffffff } 
		.s1 { fill: #000000 } 
	</style>
	<path id="Shape 1" fill-rule="evenodd" class="s0" d="m400 793c-217.33 0-393-175.67-393-393 0-217.33 175.67-393 393-393 217.33 0 393 175.67 393 393 0 217.33-175.67 393-393 393z"/>
	<path class="s1" d="m400 0c-220.94 0-400 179.06-400 400 0 220.94 179.06 400 400 400 220.94 0 400-179.06 400-400 0-220.94-179.06-400-400-400zm-111.88 567.34h-77.96v-249.53h77.96zm-41.09-280.78h-0.62c-28.29 0-46.57-19.06-46.57-43.28 0-24.69 18.91-43.28 47.66-43.28 28.75 0 46.41 18.59 47.03 43.28 0.16 24.06-18.12 43.28-47.5 43.28zm352.97 280.78h-88.44v-129.06c0-33.75-13.75-56.88-44.22-56.88-23.28 0-36.25 15.63-42.18 30.63-2.19 5.31-1.88 12.81-1.88 20.47v134.84h-87.66c0 0 1.1-228.75 0-249.53h87.66v39.22c5.16-17.19 33.13-41.56 77.81-41.56 55.47 0 98.91 35.94 98.91 113.12z"/>
</svg>