<svg version="1.2" xmlns="http://www.w3.org/2000/svg" viewBox="0 0 800 800" width="256" height="256">
    <style>
        .s0 { fill: #000000 }
        .s1 { fill: #ffffff;stroke: #ffffff;stroke-width: 5.6 }
    </style>
    <path id="Shape 1" fill-rule="evenodd" class="s0"
          d="m400 800c-221.2 0-400-178.8-400-400 0-221.2 178.8-400 400-400 221.2 0 400 178.8 400 400 0 221.2-178.8 400-400 400z"/>
    <path class="s1"
          d="m409.8 74.78c-15.68 1.32-27.43 3.5-38.48 7.07-6.75 2.2-21.47 7.77-26.82 10.15-4.33 1.9-23.2 12.28-35.15 19.25-20.85 12.2-31.63 23.8-36.65 39.55-1 3.08-1.43 3.83-2.43 4.37-4.95 2.71-9.65 6.9-12.82 11.48-4.88 7.12-8.38 18.15-9.47 29.95-0.25 2.75-0.58 5.95-0.68 7.15l-0.2 2.15-4.87 4.27c-13.4 11.83-27.75 27.95-38.35 43.18-21.98 31.52-36.73 69.17-41.98 106.92-1.88 13.6-2.3 20-2.3 35.58 0 15.57 0.43 21.95 2.3 35.57 3.4 24.63 11.33 50.45 22.43 73.5 13.02 27.01 32.2 52.95 53.67 72.73l6.12 5.62 0.5 7.83c0.3 4.27 0.7 12.92 0.88 19.22 0.45 14.55 1.05 17.05 4.65 20.13 2.08 1.77 5.4 3.4 12.2 5.95 2.75 1.05 11.45 5.02 19.35 8.85 20.05 9.77 26.55 12.4 36.53 14.8 7 1.7 8.59 1.9 17.72 2.2l8.72 0.25 2.83 9.77c5.12 17.48 9.4 31.65 11.78 38.9 2.95 8.96 6.82 19.43 7.45 20 0.62 0.68 6.77 2.51 13.22 3.96 23.25 5.25 59.5 5.95 94.15 1.79 11.72-1.42 19.8-5.82 22.67-12.34 0.75-1.68 0.8-2.25 0.43-4.76-0.2-1.55-0.55-5.2-0.68-8.07l-0.3-5.25 3.7-0.7c12.1-2.32 18.15-5.5 20.8-10.9 0.88-1.83 1.13-3.02 1.3-6.52 0.3-5.38-0.2-8.83-2.82-20.48-3.55-15.35-4.25-21.17-3.33-26.7l0.53-3 2.62-0.88c5.63-1.87 8.13-4.65 8.13-9.1v-2.15l2.62-1.2c6.25-2.82 13.1-4.12 23.18-4.45l7.27-0.19 1.18 2.05c0.68 1.07 1.87 2.82 2.75 3.82 1.55 1.8 1.62 1.83 5.9 2.58 13.07 2.25 26.5 2.27 36.72 0.12 7.95-1.68 10.6-3 14.65-7.32 7.53-8.13 12.73-23.73 12.7-38.4 0-6.51-0.37-8.78-3-17.91-3.65-12.67-8.4-25.57-11.95-32.45-2.2-4.27-5.62-8.02-9.32-10.22-1.33-0.75-2.4-1.55-2.4-1.75 0-0.18 0.95-2 2.12-4.08 3.33-5.9 9.98-19.92 12.83-26.87 9.72-24.25 15.3-48.3 17.55-75.85 0.62-7.73 0.62-28.38 0-36.2-2.2-27.32-7.78-51.5-17.55-75.82-3.25-8.08-11.35-24.58-15.78-32.13-10.07-17.1-22.34-33.2-36.2-47.43l-6.47-6.65-0.75-8.22c-2.53-28.88-9.33-52.45-19.55-68.1-7.45-11.4-22.83-27.88-36.65-39.23-16.43-13.52-36.33-21.12-64.28-24.62-4.95-0.63-28.25-1.18-32.92-0.78zm31.42 15.7c15.93 2.58 31.71 7.53 45.88 14.48 9.98 4.9 15.02 8.6 23.18 17.02 5.69 5.9 20.3 24.08 21.12 26.33 0.3 0.7 0.12 0.75-1.68 0.5-7.6-1-11.35-0.7-15.72 1.37-5.38 2.5-8.4 6.75-8.63 12.03-0.04 0.95 0.05 1.87 0.18 2 0.13 0.12 0.92-0.25 1.8-0.83 3.27-2.25 5.83-2.92 11.23-2.92 4.52 0 5.37 0.12 8.95 1.37 5.7 1.93 9.94 4.58 14.35 8.98 8.02 7.97 10.77 17.47 12.27 42.65 0.75 12.15 1 36.47 0.45 44.1-2.37 33.57-11.27 64.7-25.2 88.35-3.07 5.25-13.8 21.3-16.4 24.55-3.45 4.27-7.95 8.32-12.95 11.57-15.02 9.78-30.82 16.15-45.6 18.48-6.02 0.92-17.27 0.92-22.62 0-5.7-1-14.18-4-21.85-7.73-20-9.77-33.45-22.72-55.03-53.05l-2.65-3.75 0.25 2.08c1.28 9.32 6.7 18.87 17.68 31.4 12.67 14.4 21.97 22.87 30 27.37 1.5 0.83 3 1.8 3.32 2.13 0.55 0.5 0.33 0.55-1.45 0.3-1.17-0.13-4.4-0.38-7.27-0.5-8.45-0.43-14.05 1.32-16.85 5.2l-1.25 1.75-4.38-0.25c-24.25-1.38-38.93-5.88-47.67-14.65-9.53-9.53-23.18-41.15-26.18-60.7-1-6.33-0.75-6.95 4-12.1 5.25-5.65 6.15-7.73 4.9-11.35-0.45-1.3-0.55-1.33-2.32-1.08-2.43 0.33-3.78 1.05-8.23 4.45-2.05 1.55-4.27 3.05-5 3.28-3.88 1.5-10.23 1.25-14.73-0.58-11.2-4.52-21.3-19.17-24.32-35.2-0.88-4.52-0.88-12.65 0-16.17 2-8.13 7.32-15.43 14.15-19.43 4.95-2.92 11.78-4.25 17.65-3.54 9.4 1.2 14.6 7.5 18.43 22.37l1.37 5.32 4.5-0.07c7.45-0.08 13.47-2.08 15.77-5.2 0.83-1.08 0.83-1.2 0.13-5.83-0.42-2.57-1.52-7.9-2.53-11.77-4.74-18.78-4.7-21.75 0.8-48.05 2.55-12.15 3.2-17.15 3.26-23.5 0.05-5.95-0.71-10.65-2.38-15.6-0.58-1.68-1.05-3.53-1.05-4.13 0-1.37 2.77-6.45 6.25-11.35 3.45-4.95 14.4-15.97 20.8-20.87 6.08-4.7 17.28-12.1 24.55-16.23 21.73-12.32 29.4-14.52 49.7-14.17 8.6 0.12 11.52 0.32 17.02 1.18zm-83.2 11.52c2.2 1.75 0.5 4.82-3.37 6.08-1.5 0.45-2.83 1.32-4.45 2.87-1.3 1.2-4.25 3.65-6.63 5.4-6.52 4.9-8.7 7.38-13.6 15.52-5.32 8.83-7.9 12.23-10.32 13.78-2.45 1.57-4.7 1.88-9.45 1.3-5-0.67-7.58-0.25-16.55 2.7-7.83 2.52-10.73 3.13-10.73 2.2 0-0.32 0.93-2.17 2.08-4.02 8.02-13.53 23.1-26.18 43.05-36.21 7.2-3.62 11.52-5.45 19.55-8.25 7-2.45 8.7-2.65 10.42-1.37zm-42.6 54.75c1.63 4.28 2.18 7.6 2.38 14.4 0.2 7.9-0.17 12.4-2.2 25.45-2.25 14.65-2.45 16.67-2.45 24.12 0 7.88 0.3 9.83 2.7 18.03 1.88 6.4 2.45 11.35 1.63 13.4-0.58 1.4-1.93 2.27-4.2 2.7l-1.5 0.3-0.3-2.83c-0.75-7.45-4.5-14.15-10.58-18.97-6-4.75-12.6-7.07-20.25-7.07-5.32 0-9.07 0.82-14.3 3.25-1.87 0.82-3.45 1.45-3.57 1.32-0.55-0.55-1.18-11.77-1.2-21.12 0-8.53 0.12-11.45 0.74-14.73 2.05-11.1 5.63-17.47 13.68-24.25 8.45-7.07 17.8-11.6 28.45-13.82 5.28-1.08 5.75-1.18 8.38-1.25 2-0.05 2.2 0.05 2.59 1.07zm-66.72 68.2c0.42 0.37 0.67 1.45 0.7 2.87 0 1.26 0.17 2.28 0.38 2.28 0.17 0 0.3 0.92 0.3 2.07 0 1.13-0.18 2.08-0.38 2.08-0.17 0-0.25 0.45-0.17 0.95 0.12 0.57-0.08 1.3-0.46 1.67-0.37 0.33-0.67 0.83-0.67 1.08 0 0.25-0.17 0.45-0.42 0.45-0.2 0-0.43 0.25-0.43 0.57 0 0.33-0.3 0.68-0.62 0.83-0.33 0.12-0.63 0.5-0.63 0.82 0 0.33-0.25 0.8-0.57 0.95-0.55 0.33-3.58 9.03-3.58 10.33 0 0.32-0.12 0.62-0.3 0.62-0.2 0-0.32 0.63-0.37 1.33 0 0.75-0.25 3.62-0.56 6.38-1.29 12.15 2.08 28.95 8.35 41.59 7.21 14.45 19.55 24.58 33.4 27.43l2.5 0.55 0.13 1.63c0.62 8.84 4.37 19.87 9.45 27.82 5.2 8.15 6.82 12.97 5.62 16.65-0.87 2.7-3.25 4.45-14.77 11.03-24.37 13.92-41.42 24.19-49.5 29.9-2.27 1.62-7.52 4.7-11.6 6.77-10.65 5.5-13.93 8.83-14.65 14.9q-0.74 6.41 6.32 25.58c1.5 4.12 3.83 10.6 5.15 14.4 1.33 3.82 4.2 11.47 6.38 17.05 5.65 14.55 7.13 19.47 9.83 32.52 1.82 8.7 5.02 30.03 5.02 33.22 0 2.38-11.82-10.44-21.75-23.59-21.25-28.13-35.85-60.75-42.67-95.35-1.75-8.85-3.08-17.93-2.8-19.1 0.17-0.63 0.07-1-0.2-1-0.33 0-0.43-0.63-0.25-2.08 0.17-1.37 0.07-2.07-0.2-2.07-0.28 0-0.38-0.88-0.18-2.7 0.2-1.9 0.13-2.7-0.2-2.7-0.32 0-0.37-1.08-0.17-3.95 0.2-2.75 0.17-3.95-0.18-3.95-0.35 0-0.45-2.75-0.45-8.95 0-6.2 0.13-8.95 0.45-8.95 0.33 0 0.38-1.21 0.18-3.95-0.2-2.88-0.18-3.95 0.17-3.95 0.35 0 0.43-0.8 0.2-2.7-0.2-1.83-0.12-2.7 0.18-2.7q0.45-0.01 0.2-2.08c-0.18-1.3-0.08-2.08 0.17-2.08 0.3 0 0.38-0.74 0.2-1.87-0.07-1.05 0-1.87 0.2-1.87 0.2 0 0.3-0.68 0.2-1.45-0.07-0.8 0-1.45 0.2-1.45 0.2 0 0.3-0.68 0.2-1.45-0.07-0.8 0-1.45 0.2-1.45 0.2 0 0.33-0.58 0.2-1.25-0.07-0.7 0-1.25 0.18-1.25 0.2 0 0.42-1.08 0.45-2.38 0.05-1.33 0.25-2.45 0.45-2.52 0.2-0.06 0.3-0.58 0.17-1.13-0.07-0.57 0-1.05 0.18-1.05 0.2 0 0.42-0.88 0.42-1.95 0.05-1.07 0.25-2.05 0.5-2.12 0.25-0.08 0.37-0.38 0.25-0.68-0.57-1.45 7.12-28.45 8.2-28.87 0.2-0.08 0.38-0.55 0.38-1 0-1.2 1.7-5.75 2.12-5.75 0.2 0 0.37-0.45 0.37-1.05 0-0.6 0.21-1.05 0.43-1.05 0.25 0 0.43-0.45 0.43-1.05 0-0.6 0.2-1.05 0.42-1.05 0.25 0 0.43-0.45 0.43-1 0-0.58 0.3-1.3 0.62-1.68 0.33-0.32 0.63-0.82 0.63-1.12 0-0.88 1-3.28 1.32-3.28 0.18 0 0.33-0.3 0.33-0.62 0-0.8 2.17-5.33 2.7-5.7 0.25-0.18 0.87-1.3 1.42-2.5 2.5-5.75 3.13-6.95 3.68-7.15 0.3-0.13 0.55-0.63 0.55-1.08 0-0.45 0.37-1.17 0.82-1.55 0.45-0.42 0.83-1.05 0.83-1.45 0-0.37 0.32-1.05 0.8-1.45 0.42-0.42 0.87-1.25 1.05-1.9 0.12-0.62 0.45-1.12 0.67-1.12 0.25 0 0.42-0.3 0.42-0.63 0-0.32 0.18-0.62 0.38-0.62 0.2 0 0.5-0.45 0.63-1.05 0.17-0.58 0.45-1.05 0.67-1.05 0.25 0 0.42-0.3 0.42-0.63 0-0.32 0.18-0.62 0.38-0.62 0.2 0 0.5-0.45 0.63-1.05 0.17-0.58 0.45-1.05 0.67-1.05 0.25 0 0.42-0.3 0.42-0.63 0-0.32 0.2-0.62 0.43-0.62 0.25 0 0.42-0.3 0.42-0.63 0-0.32 0.2-0.62 0.43-0.62 0.25 0 0.42-0.3 0.42-0.63 0-0.32 0.2-0.62 0.43-0.62 0.25 0 0.42-0.3 0.42-0.63 0-0.37 0.3-0.75 0.63-0.87 0.32-0.18 0.62-0.5 0.62-0.83 0-0.32 0.2-0.57 0.43-0.57 0.25 0 0.42-0.25 0.42-0.58 0-0.32 0.3-0.67 0.63-0.82 0.32-0.13 0.62-0.5 0.62-0.88 0-0.32 0.2-0.62 0.43-0.62 0.25 0 0.42-0.25 0.42-0.58 0-0.32 0.3-0.67 0.63-0.82 0.32-0.13 0.62-0.5 0.62-0.83 0-0.3 0.3-0.67 0.63-0.82 0.32-0.13 0.62-0.5 0.62-0.83 0-0.3 0.3-0.67 0.63-0.82 0.32-0.13 0.62-0.5 0.62-0.83 0-0.37 0.38-0.82 0.83-1.07 0.45-0.25 0.82-0.68 0.82-0.95 0-0.28 0.38-0.75 0.83-1.05 0.45-0.3 0.82-0.75 0.82-1.05 0-0.3 0.38-0.75 0.83-1.05 0.45-0.3 0.82-0.75 0.82-1.05 0-0.3 0.58-0.95 1.25-1.45 0.7-0.55 1.25-1.15 1.25-1.45 0-0.3 0.68-1.05 1.45-1.68 0.8-0.62 1.45-1.37 1.45-1.62 0-0.25 1.13-1.5 2.5-2.7 1.38-1.25 2.5-2.45 2.5-2.68 0-0.57 8.03-8.7 8.58-8.7 0.3 0 0.57-0.37 0.7-0.82 0.25-1 0.95-1.08 1.7-0.08zm321.47 17.92c30.9 36.1 49.48 79.38 54.95 128.25 0.88 8.15 1.25 32.13 0.63 41.43-2.08 29.95-9.58 58.4-22.38 85.45-2.45 5.12-8.07 15.6-10.22 18.97l-1.08 1.7-4.02 0.55c-10.4 1.3-25.45 6.38-38.85 13.1-4.03 2.03-4.58 2.18-4.58 1.26 0-0.33 1.38-4.4 3.08-9.03 6.37-17.48 12.6-36.28 19.42-58.58 2.08-6.74 5.45-17.6 7.51-24.12 4.52-14.43 5.49-18.73 5.27-24.13-0.25-8.07-2.75-10.85-31.08-35.2-7.85-6.74-14.1-12.95-15.22-15.17-1.63-3.12-0.13-7.77 5.65-17.55 4.37-7.35 6.7-12.48 9.47-20.93 6.25-18.72 10.73-39.22 13.1-59.87 0.93-7.62 1.9-20.97 1.9-25.17 0-4.38 0.38-6.65 1.03-6.65 0.25 0 2.7 2.57 5.42 5.69zm-44.1 138.68c1.38 1.18 7.28 6.78 13.1 12.48 5.83 5.7 12.7 11.95 15.18 13.89 6.7 5.25 9.95 8.53 11.47 11.7 1.33 2.66 1.33 2.71 1.08 7.36-0.3 4.82-1.75 12.19-5.08 26-4.27 17.52-11.22 38.22-21.5 63.94-6.7 16.73-8.2 19.01-13.35 20.5-4.25 1.2-5.15 1.33-16.3 1.75-10.27 0.43-13.72 0.93-16.85 2.51-1.95 1-2.5 1.05-2.5 0.17 0-0.87 2.95-5.9 18.73-31.77 12.3-20.18 21.35-35.33 23-38.58 0.62-1.12 0.57-1.32-0.13-2.45-0.42-0.67-1.95-2.57-3.45-4.25-2.7-3.05-4.05-5.2-4.05-6.52 0-0.38 0.68-2.63 1.43-4.9 5.87-17.28 2.87-45.48-5.83-55.18-1.9-2.13-5.25-4.2-6.75-4.2-1.12 0-4.25-2.17-4.25-2.95 0-0.42 1.83-2.13 4.28-4.02 2.32-1.8 5.07-4.25 6.12-5.4 1.05-1.13 2.18-2.08 2.5-2.13 0.33 0 1.75 0.93 3.15 2.05zm-216.65 12.52c1.03 1 4.38 4.58 7.33 8.03 2.95 3.42 6.45 7.45 7.72 8.9 4.25 4.88 13.8 10.6 35.03 21l13.1 6.45 0.55 3.38c1.3 8.34 8.9 34.77 11.9 41.05 3.95 8.39 8.7 10.85 15.92 8.22 1.58-0.57 3.13-1.05 3.38-1.05 1.45 0-0.33 4-3.9 8.73-4.7 6.25-5.7 10.22-3.45 13.64 1.2 1.83 4.95 4.45 10.1 7.08 12.65 6.5 27.95 13.8 35.48 16.93 4.82 1.99 8.82 3.9 8.82 4.15 0 0.37-1.82 0.57-6.52 0.79-34.9 1.46-55.5 3.08-88.08 6.96-9.2 1.07-14.77 1.57-15.15 1.32-0.95-0.57-2.07-4-2.57-7.7-0.7-5.75-0.5-23.95 0.42-35.7 0.45-5.83 0.83-12.23 0.83-14.18 0-10.47-5.03-10.4-6.95 0.13-0.68 3.87-0.58 6.9 0.7 20.88 0.92 9.44 1.07 20.87 0.42 25.19-0.25 1.5-0.8 3.96-1.3 5.5-0.75 2.63-0.92 2.83-1.95 2.83-1.7-0.05-4.32-1.38-8.85-4.58-5.37-3.77-7.45-4.82-7.9-4.07-1 1.55-0.05 4.15 2.68 7.32 2.62 3 3.02 5.63 1.15 7.7-0.95 1.18-1.75 1.45-5.13 2.18-5.45 1.17-7.82 2.9-7.82 5.82 0 1 0.07 1.05 2.62 1.05 1.43 0 6.15-0.2 10.58-0.5 7.97-0.45 11.92-0.25 15.97 0.93l1.5 0.42 0.3 3.45c0.93 10.85 4.33 39.1 7.78 63.6 1.32 9.78 2.45 17.98 2.45 18.18 0 1-10.45 0-19.13-1.83-13.97-2.94-25.37-7.62-48.87-19.97-7.53-3.95-15.18-7.9-16.93-8.78l-3.25-1.57v-3.77c0-8.65-1.67-31.75-3.37-47.23-4.78-43.52-14.6-83.25-28.3-114.47-1.58-3.58-2.88-6.78-2.88-7.08 0-0.33 3.88-3.5 8.6-7.02 27.55-20.68 46.13-32.28 66.08-41.23 3.45-1.55 6.87-2.78 7.62-2.82 1.05 0 1.83 0.42 3.27 1.74zm203.85 13.01c4.25 2.17 7.25 11.89 8.53 27.52 0.67 8.53-0.55 16.85-2.9 20.05l-0.75 0.95-6.83-0.45c-11.02-0.7-25-2.78-31.57-4.7l-1.83-0.5 0.05-6.45c0.05-3.52 0.08-6.58 0.08-6.75 0-0.42 2.87-1.82 4.37-2.17 1.63-0.33 6.33-0.8 7.83-0.75 0.62 0.04 1.12-0.13 1.12-0.3 0-0.43-4.52-1.75-6.87-1.95-0.93-0.13-1.9-0.3-2.2-0.38-0.25-0.08-1.38 0-2.45 0.18-2.58 0.5-3.2 0.07-3.88-2.33-0.3-1.07-0.92-2.7-1.32-3.62-0.68-1.33-0.7-1.68-0.25-1.95 0.3-0.2 0.7-0.38 0.92-0.38 0.18 0 3.63-2.15 7.7-4.87 12.2-8.03 17.43-10.9 21.35-11.55 0.75-0.18 1.38-0.3 1.43-0.33 0.42-0.42 6.5 0.18 7.47 0.73zm-31.5 0.02c0 0.32-0.37 0.8-0.8 1.05-0.45 0.2-4.25 3.13-8.4 6.45l-7.62 6.02-2.33 0.08c-8.9 0.3-15.67-0.8-20.92-3.33-4.03-1.99-8.2-4.87-8.2-5.7 0-0.82 1.87-1.2 3.25-0.67 2.07 0.82 6.9 1.7 9.83 1.7 4.02 0 10.57-1.05 18.75-3 6.82-1.63 14.17-3.13 15.72-3.2 0.38-0.05 0.7 0.25 0.72 0.6zm-137.15 2.05c3.03 1 8.35 1.8 17.03 2.52 11.82 0.95 11.57 0.93 11.57 2.38 0 0.67-0.37 2.67-0.8 4.4-0.45 1.8-0.95 4.2-1.12 5.37-0.25 2.05-0.38 2.2-1.38 2.2-1.9 0-9.32-2-13.97-3.7-11.28-4.25-18.03-9.47-17.05-13.27 0.5-1.95 0.95-2.2 2.42-1.33 0.75 0.43 2.25 1.05 3.3 1.43zm50.93 1.45c0.45 0.2 0.92 0.32 1.05 0.25 0.57-0.57 16.92 4.83 22.6 7.47 8.72 4.13 11.02 5.33 15.65 8.38 2.63 1.75 7.08 3.45 9.53 3.7 0.57 0.05 1.25 0.12 1.49 0.12 0.26 0.05 0.45 0.83 0.5 1.7 0.08 1.56-0.05 1.71-1.82 2.71-1.78 0.99-5.7 2.37-6.33 2.25-0.3-0.05-1.5 0.25-6.25 1.57-2.2 0.62-2.7 1.67-0.57 1.25 2.42-0.5 14.55 2.93 15.8 4.45 0.25 0.3 0.33 2.13 0.2 4.65l-0.25 4.2-1.7 1.2c-0.93 0.7-4.88 3.87-8.78 7.12-3.87 3.2-8.57 6.95-10.4 8.23-7.72 5.57-24.2 11.9-31.02 11.9-2 0-2.45-0.18-3.45-1.2-0.68-0.7-1.25-1.68-1.33-2.2-0.12-0.88-2.67-8.15-3.52-10.1-1.8-4.05-4.78-13.1-5.2-15.73-0.13-0.75-0.3-1.8-0.43-2.37-0.95-4.77-1.42-17.15-0.82-23.7 0.12-1.7 0.25-3.4 0.3-3.75 0.25-3.08 2.62-8.83 4.32-10.4 1.75-1.63 3.83-2.33 6.88-2.25 1.55 0.05 3.15 0.3 3.55 0.55zm68.67 17.92c2.28 1 2.78 1.55 4.03 4.25 1.55 3.31 1.45 7.73-0.18 10.78-1.67 3.25-4.07 4.5-8.45 4.53-5.07 0-4.95 0.07-6.27-6-0.68-2.88-1.05-5.45-0.93-5.65 0.13-0.25 0.05-0.43-0.17-0.43-0.3 0-0.45-1.05-0.45-2.62 0-2.43 0.07-2.63 1.17-3.18 5.25-2.62 8.1-3.02 11.25-1.68zm9.08 26.18c0.95 0.45 3.25 1.82 5.07 3.12 4.13 2.88 7.28 4.38 10.03 4.7l2.12 0.25v2.51c0 1.4-0.17 4.62-0.42 7.12-0.2 2.55-0.58 9.2-0.83 14.8-0.62 14.17-1.32 21.12-3.37 33.7-0.88 5.57-2.2 10.2-2.9 10.32-0.8 0.13-5.63-9.7-12.65-25.92-8.85-20.43-13.8-29.83-20-38.18-1.5-2.05-2.65-3.95-2.58-4.25 0.08-0.32 1.08-1.7 2.2-3.12l2.08-2.55 1.87 0.3c3.08 0.45 4.33 0.25 8.83-1.7 4.9-2.13 7.65-2.4 10.55-1.1zm38.65 7.33c3.12 0.82 6.77 2.77 9.23 4.94 2.5 2.21 5.12 5.53 5.12 6.51 0 0.82-12.4 22.37-19.75 34.35-7.03 11.44-16.65 25.2-17.93 25.69-0.82 0.33-0.75-0.25 0.68-5.69 3-11.71 5.4-28.93 6.87-48.98 0.33-4.7 0.63-10.08 0.63-11.98 0-3.37 0.05-3.45 1.17-3.87 4.4-1.7 9.83-2.08 13.98-0.98zm-69.2 10.48c8.98 12.7 14.52 23.37 25.95 50.55 2.37 5.7 4.32 10.6 4.32 10.95 0 1-1.2 0.75-8.4-1.7-12.89-4.45-24.87-9.53-39.07-16.6-9.95-4.95-19.5-10.15-19.5-10.55 0-0.18 0.37-1.55 0.87-3 2.25-6.95 7.08-13.68 13.85-19.4 4-3.38 18.35-13.4 19.23-13.43 0.25 0 1.5 1.45 2.75 3.18zm156.92 59.58c4.28 2.07 8.6 6.37 10.65 10.6 2.63 5.4 5.4 14.79 9.45 31.44 1.68 6.9 1.88 8.35 2.08 14.15 0.17 5.63 0.07 6.9-0.68 10.1-2.17 9.15-7.4 16.18-14.47 19.5-6.95 3.28-24.48 4.63-33.45 2.58-2.3-0.5-2.88-0.8-2.88-1.42 0-1.33 5.33-3 15.3-4.83 8.03-1.45 11.7-2.3 11.95-2.7 0.2-0.33-0.57-0.57-5-1.67-2.62-0.68-15.9-0.68-23.5-0.05-3.07 0.3-8.65 0.62-12.35 0.75l-6.7 0.3-0.25-2.25c-0.12-1.25-0.82-8.08-1.55-15.15-1.8-18.3-3.65-30.2-6.02-38.48l-0.68-2.28 1.8-1.55c3.45-2.95 11.4-6.5 25.68-11.32 8.07-2.75 13.27-4.88 16.52-6.78 3.83-2.25 5.08-2.62 8.33-2.5 2.25 0.13 3.57 0.45 5.77 1.56zm-69.22 21.47c1.57 0.95 5.5 11.57 7.27 19.55 2.03 9.15 3.75 26.42 3.46 35.07l-0.13 4.28-5.4 1.82c-2.95 1-6.57 1.95-7.97 2.08l-2.55 0.3-0.26-1.8c-0.12-1-0.54-4.75-0.87-8.28-0.38-3.52-1.8-13.65-3.17-22.47-2.5-16.18-4.13-27.93-4.13-29.75 0-0.95 0.18-1 3.25-1.18 4.27-0.25 9.85-0.05 10.5 0.38zm-83.83 0.2c9.53 0.57 26.68 2.55 27.55 3.12 0.2 0.13 1.33 9.45 1.75 14.35 0.58 6.83 0.8 10.65 1.5 28.08 0.63 14.05 0.8 16.4 2.08 29.95 0.8 8.33 1.37 19.22 1.87 35.58 0.75 24.55 1.68 36.6 3.58 48 0.55 3.4 0.95 6.25 0.92 6.27-0.42 0.25-7.12 1.95-11.15 2.88-11.95 2.62-23.62 3.75-38.07 3.75-16.78-0.05-29.53-1.3-44.73-4.33-6.87-1.37-18.1-4.2-18.5-4.65-0.07-0.07-1.32-4.07-2.82-8.9-10.7-34.5-18.18-68.42-23.98-108.52-2.32-15.93-4.7-36.48-4.32-36.83 0.45-0.42 22-3.9 31.75-5.2 13.42-1.7 28.55-3.02 41.8-3.65 6.57-0.32 24.85-0.25 30.77 0.1zm56.46 2.7c2.25 8.35 3.74 20.47 5.75 46.6 0.69 8.9 1.42 17.72 1.62 19.55 0.25 2.17 0.25 3.4-0.05 3.58-0.42 0.25-11.97 2.37-19.75 3.62-3.12 0.5-4.7 0.57-4.7 0.32 0-0.24-0.3-4.12-0.62-8.57-1.38-18.25-1.9-30.2-2.18-46.92-0.12-9.65-0.12-17.55 0-17.55 0.13 0 1.43-0.31 2.83-0.68 3.12-0.8 8.82-1.33 13.42-1.25 3.33 0.05 3.33 0.05 3.68 1.3zm-1.08 83.25c0.75 0.2 0.95 0.67 1.17 2.77 0.18 1.41 1.33 7.45 2.58 13.41 3.12 14.9 3.95 20.22 4.2 27.45l0.25 6.25-4.75 1.55c-2.63 0.82-5.65 1.7-6.83 1.95-2.27 0.45-9.35 1.07-9.35 0.82 0-0.07-0.37-6.25-0.87-13.67-0.45-7.45-0.95-19.1-1.07-25.93l-0.26-12.35h1.33c0.75 0 3.17-0.45 5.37-1 2.21-0.57 4.63-1.12 5.28-1.2 0.7-0.07 1.45-0.2 1.65-0.2 0.25-0.05 0.82 0.05 1.3 0.15zm-104.25-485.85c-3.5 0.57-8.4 2.78-13.1 5.9-3.95 2.58-10.35 9.08-13.03 13.15-3.57 5.45-5.9 12.73-5.27 16.47 0.3 1.68 2.2 4.13 3.2 4.13 0.3 0 1.3-1.55 2.2-3.45 3.55-7.25 8.95-14.22 13.9-17.9 2.87-2.13 7.37-4.15 11.15-5.08 2.37-0.57 4.17-0.67 8.95-0.49 3.25 0.12 6.37 0.32 6.9 0.49 0.8 0.25 1 0.08 1.55-1.2 1-2.32 0.8-4.07-0.7-6.32-2.93-4.33-9.53-6.75-15.75-5.7zm134.37 44.92c0 5.65 1.38 11.23 5.08 20.48 1.12 2.83 2 5.52 1.9 6.02q-0.29 2-11.28 2.75c-6.45 0.46-7.07 0.55-10.14 1.33-1.63 0.42-1.81 0.57-1.81 1.7 0 4 2.88 7.65 6.91 8.85 6.52 1.87 17.72-1.55 23.62-7.15 3.62-3.5 3.57-3.25 0.62-8.15-2.4-3.95-7.22-13.6-12.27-24.55-1.13-2.5-2.18-4.5-2.32-4.5-0.21 0-0.33 1.45-0.31 3.22zm-106.3-0.74c-1 5.87 2.7 17.22 9.35 28.62 1.5 2.53 2.5 4.7 2.43 5.25-0.3 2.15-6.7 3.95-12.15 3.4-1.63-0.17-5.5-0.75-8.58-1.3-7.5-1.32-8.5-1.32-9.1 0.13-1.17 2.82-1.25 3.9-0.57 5.57 1.82 4.65 9.22 7.45 19.75 7.45 8.7 0 12.07-1.12 16.97-5.65 2.05-1.92 2.63-2.75 3.15-4.65 0.75-2.57 0.58-5.15-0.5-7.25-0.37-0.75-2.8-3.5-5.32-6.15-5.25-5.5-6.38-7.32-10.48-16.97-1.55-3.63-3.2-7.38-3.7-8.4l-0.95-1.83c0 0-0.3 1.8-0.3 1.78zm53.8 7.57c-0.62 0.33-0.75 1-0.75 3.45 0 11.4 6.63 26.37 18.23 41.43 3 3.82 13.07 15.92 17.17 20.6 4.15 4.75 5.58 8.77 4.53 13.17-0.68 2.83-2.33 6.12-3.25 6.45-0.38 0.13-4.63 2.08-9.45 4.32-11.15 5.16-14.9 6.71-19.55 8.03-5.53 1.55-9.7 2.08-14.18 1.8-7.25-0.42-8.72-1.83-10.95-10.45-0.7-2.7-1.3-5.02-1.3-5.08 0-0.07-0.15-0.17-0.42-0.17-0.7 0-2.45 4-2.93 6.83-0.87 4.9 0.88 11.07 4.28 15.02l1.45 1.68 6.27 0.12c16.98 0.43 32.66-4.65 51.8-16.67l6.21-3.9 0.69-2.88c0.38-1.57 1.18-4.2 1.75-5.77 0.58-1.63 1.3-4 1.56-5.28 0.82-4 0.49-4.62-6.53-11.52-18.1-17.73-37.83-45.13-40.17-55.9-0.45-2.03-1.08-3.65-1.8-4.46-1.08-1.32-1.58-1.44-2.66-0.82zm-205.3 45.25c-4 1.38-6.99 4.63-8.57 9.35-1 2.93-0.93 3.08 0.87 1.45 2.5-2.42 3.4-2.87 5.78-2.87 1.18 0 2.3 0.17 2.42 0.42 0.13 0.2-0.25 1.95-0.87 3.83-0.93 2.87-1.15 4.4-1.33 9.1-0.2 6.52 0.45 10.72 2.38 14.72 2.45 5.13 2.4 5.2 2.62-5.65 0.2-8.47 0.33-10.07 1.13-12.52 1.45-4.53 4.27-6.45 7.72-5.33 2.08 0.7 3.7 2.8 6.53 8.58 1.42 2.87 3.15 5.87 3.9 6.75l1.32 1.55 0.3-2.88c1.3-11.95-5.5-23.25-15.92-26.45-3.28-1-5.45-1.05-8.27-0.05zm255.5 57.7c-15.86 8.4-21.38 10.58-30.33 12.02-2.03 0.33-3.88 0.83-4.08 1.13-0.37 0.63-0.45 10.65-0.07 12.9 0.25 1.55 0.33 1.58 2 1.58 2.82 0 9.07-1.5 12.9-3.03 9.6-3.9 19.05-13.35 25.82-25.8 0.83-1.55 1.45-2.78 1.38-2.78-0.05 0-3.5 1.81-7.62 3.98zm-103.13 8.13c2.87 5.32 10.48 11.14 19.1 14.47 10.35 4.08 26.63 6.6 39.3 6.2l3.95-0.13-0.08-5.62c-0.04-3.08-0.25-6.45-0.42-7.5l-0.38-1.88-14.29-0.25c-23.55-0.42-35.65-2.27-47.61-7.24-0.67-0.3-0.62-0.05 0.43 1.95zm-8.85 12.47c-2.13 0.63-2.4 1.67-1 3.53 0.67 0.92 2.17 2.55 3.37 3.7 1.18 1.12 3.83 4.45 5.91 7.35 2.07 2.9 4.9 6.65 6.32 8.32 7.35 8.6 15.48 11.58 31.65 11.58 13.27 0 25.45-2.46 29.62-6 1.3-1.08 4.28-5.25 4.28-5.95 0-0.2-6.78-0.3-15.1-0.2-24.88 0.3-35.23-1.13-45.43-6.13q-10.35-5.11-14.47-13.85c-1.2-2.57-1.45-2.82-2.58-2.77-0.67 0-1.87 0.2-2.57 0.42zm53.27 140.1c-2.5 1.5-2.82 5.15-0.7 7.27 3.08 3.08 8.03 0.83 8.03-3.64 0-1.26-0.3-1.88-1.42-3.01-1.68-1.67-3.83-1.9-5.91-0.62zm6.3 22.02c-2.25 0.76-3.52 2.51-3.52 4.78 0 1.3 0.3 1.9 1.42 3.05 1.2 1.2 1.71 1.42 3.33 1.42 1.5 0 2.17-0.25 3.25-1.19 1.2-1.08 1.37-1.45 1.37-3.33 0-1.8-0.15-2.3-1.25-3.32-1.3-1.25-3.15-1.83-4.6-1.41zm103.38 59.15c-10.22 1.83-18.55 6-23.3 11.66l-1.75 2.07h1.95c4.38 0 8.95-1.9 18.92-7.9 6.03-3.62 9.6-5.5 12.08-6.25 2.07-0.68-3.45-0.37-7.9 0.42zm-8.63 17.46c-2.9 0.54-6.32 1.89-7.82 3.12-1.05 0.88-1.17 1.13-0.63 1.5 0.93 0.62 14.68 0.12 24.33-0.87 4.38-0.46 8.28-0.83 8.73-0.88 1.37-0.08-3.5-1.5-7.7-2.2-4.75-0.83-13.95-1.2-16.91-0.67zm-3.75 17.27c-2.32 0.62-5.32 2.02-5.7 2.62-0.37 0.61 5.88 0.93 22.83 1.18 14.17 0.15 15.67 0.12 14.47-0.43-1.95-0.92-9.27-2.64-14.07-3.37-5.25-0.8-14.65-0.8-17.53 0z"/>
</svg>