<svg version="1.2" xmlns="http://www.w3.org/2000/svg" viewBox="0 0 800 800" width="800" height="800">
	<style>
		.s0 { fill: #000000;stroke: #000000;stroke-miterlimit:10 } 
		.s1 { fill: #ffffff } 
		.s2 { fill: #000000 } 
	</style>
	<path id="Shape 1" fill-rule="evenodd" class="s0" d="m400 800c-221.2 0-400-178.8-400-400 0-221.2 178.8-400 400-400 221.2 0 400 178.8 400 400 0 221.2-178.8 400-400 400z"/>
	<path class="s1" d="m680.59 478.98c-3.4-10.28-12.3-17.45-23.8-19.17-5.43-0.81-11.64-0.46-18.99 1.05-12.82 2.65-22.33 3.65-29.27 3.85 26.2-44.22 47.49-94.65 59.75-142.12 19.83-76.75 9.23-111.72-3.15-127.53-32.76-41.87-80.56-64.36-138.22-65.04-30.77-0.38-57.77 5.69-71.86 10.06-13.12-2.31-27.22-3.6-42.02-3.84-27.74-0.45-52.25 5.6-73.19 18.03-11.6-3.92-30.2-9.45-51.69-12.98-50.55-8.29-91.28-1.83-121.08 19.22-36.08 25.49-52.8 69.77-49.71 131.61 0.98 19.64 11.97 79.38 29.26 136.03 9.94 32.57 20.54 59.61 31.5 80.39 15.55 29.46 32.19 46.81 50.87 53.04 10.46 3.49 29.48 5.93 49.49-10.73 2.53 3.07 5.92 6.12 10.41 8.96 5.7 3.59 12.67 6.53 19.63 8.27 25.1 6.28 48.6 4.71 68.66-4.09 0.12 3.57 0.22 6.98 0.3 9.92 0.13 4.77 0.26 9.45 0.44 13.83 1.18 29.59 3.2 52.6 9.16 68.7 0.33 0.89 0.77 2.24 1.24 3.67 2.97 9.11 7.95 24.36 20.61 36.31 13.11 12.37 28.97 16.17 43.49 16.17 7.28 0 14.23-0.96 20.33-2.26 21.73-4.66 46.41-11.75 64.26-37.17 16.88-24.03 25.08-60.22 26.57-117.25q0.28-2.42 0.54-4.62l0.35-3.02 3.98 0.35 1.02 0.07c22.13 1.01 49.19-3.68 65.81-11.4 13.13-6.09 55.22-28.31 45.31-58.31z"/>
	<path class="s1" d="m642.75 484.82c-65.81 13.57-70.33-8.71-70.33-8.71 69.47-103.09 98.52-233.96 73.46-265.98-68.38-87.37-186.75-46.05-188.72-44.98l-0.64 0.11c-13-2.7-27.55-4.3-43.9-4.57-29.78-0.49-52.36 7.81-69.5 20.8 0 0-211.16-86.98-201.33 109.41 2.08 41.78 59.88 316.13 128.81 233.26 25.2-30.3 49.54-55.92 49.54-55.92 12.09 8.03 26.57 12.13 41.74 10.65l1.18-1c-0.36 3.77-0.2 7.45 0.47 11.8-17.76 19.84-12.54 23.33-48.04 30.63-35.92 7.41-14.82 20.59-1.04 24.03 16.71 4.18 55.35 10.1 81.46-26.45l-1.04 4.17c6.95 5.57 11.84 36.25 11.02 64.06-0.82 27.81-1.36 46.9 4.12 61.81 5.48 14.92 10.94 48.47 57.61 38.47 39-8.36 59.21-30.01 62.02-66.14 1.99-25.68 6.51-21.88 6.79-44.84l3.62-10.87c4.18-34.81 0.67-46.04 24.69-40.82l5.84 0.52c17.68 0.8 40.82-2.85 54.41-9.16 29.24-13.57 46.59-36.24 17.75-30.28z"/>
	<path class="s2" d="m355.48 309.58c-5.93-0.83-11.3-0.06-14.02 2-1.53 1.15-2 2.49-2.13 3.42-0.34 2.44 1.37 5.15 2.43 6.54 2.97 3.95 7.32 6.66 11.63 7.26q0.94 0.13 1.86 0.13c7.18 0 13.71-5.6 14.29-9.72 0.72-5.17-6.79-8.62-14.06-9.63zm196.45 0.16c-0.57-4.05-7.78-5.2-14.62-4.25-6.83 0.95-13.46 4.03-12.91 8.1 0.45 3.15 6.15 8.54 12.9 8.54q0.85 0 1.72-0.12c4.51-0.62 7.81-3.48 9.39-5.13 2.39-2.51 3.77-5.32 3.52-7.14z"/>
	<path class="s2" d="m664.64 483.27c-2.51-7.58-10.58-10.02-24-7.25-39.84 8.22-54.11 2.52-58.79-0.93 30.97-47.17 56.44-104.19 70.18-157.4 6.51-25.2 10.11-48.61 10.4-67.68 0.33-20.94-3.24-36.33-10.59-45.73-29.66-37.89-73.18-58.22-125.86-58.77-36.22-0.41-66.82 8.86-72.76 11.47-12.49-3.11-26.11-5.02-40.93-5.26-27.19-0.44-50.7 6.07-70.15 19.34-8.46-3.15-30.3-10.65-57.01-14.95-46.19-7.44-82.89-1.8-109.07 16.75-31.25 22.14-45.68 61.72-42.89 117.62 0.94 18.81 11.66 76.68 28.58 132.1 22.26 72.93 46.46 114.22 71.92 122.72 2.99 0.99 6.42 1.69 10.21 1.69 9.29 0 20.68-4.19 32.53-18.43q5.42-6.51 10.93-12.93 5.51-6.42 11.12-12.76 5.6-6.34 11.3-12.6 5.69-6.26 11.48-12.44c10.01 5.37 21.01 8.37 32.25 8.67q0.04 0.44 0.08 0.88-0.73 0.87-1.44 1.74-0.72 0.87-1.43 1.75-0.71 0.88-1.42 1.76-0.7 0.89-1.4 1.78c-7.79 9.89-9.41 11.95-34.5 17.11-7.13 1.48-26.08 5.38-26.36 18.67-0.3 14.51 22.4 20.61 24.99 21.26 9.01 2.25 17.7 3.37 25.98 3.37 20.14 0 37.87-6.62 52.03-19.43-0.43 51.74 1.72 102.73 7.94 118.26 5.09 12.72 17.52 43.8 56.78 43.8 5.76 0 12.1-0.67 19.08-2.16 40.98-8.79 58.78-26.9 65.66-66.83 3.69-21.34 10.01-72.3 12.98-99.64 6.28 1.96 14.35 2.86 23.09 2.85 18.21 0 39.23-3.87 52.41-9.98 14.81-6.88 41.53-23.76 36.68-38.42zm-136.63-321.42c47.21 1.04 84.55 18.7 110.98 52.48 20.28 25.91-2.05 143.82-66.69 245.54q-0.24-0.31-0.48-0.62-0.25-0.31-0.49-0.62-0.25-0.31-0.49-0.62-0.25-0.31-0.5-0.61l-0.81-1.03c16.7-27.58 13.43-54.87 10.53-79.07-1.2-9.93-2.33-19.31-2.04-28.12 0.3-9.34 1.53-17.35 2.73-25.09 1.46-9.55 2.96-19.42 2.54-31.06 0.31-1.22 0.44-2.67 0.27-4.38-1.05-11.16-13.79-44.57-39.77-74.81-14.21-16.54-34.93-35.05-63.22-47.53 12.17-2.52 28.81-4.88 47.44-4.46zm39.04 136.71c-0.13 8.07-1.24 15.4-2.42 23.04-1.27 8.23-2.58 16.73-2.91 27.05-0.32 10.05 0.93 20.49 2.14 30.59 2.45 20.4 4.97 41.41-4.77 62.13q-0.6-1.07-1.18-2.17-0.57-1.09-1.11-2.2-0.54-1.11-1.05-2.23-0.5-1.13-0.97-2.27c-1.21-2.93-3.84-7.65-7.48-14.17-14.16-25.39-47.32-84.86-30.34-109.12 5.05-7.22 17.88-14.65 50.09-10.65zm-303.18 219.57c-13.06 15.7-22.07 12.69-25.04 11.7-19.31-6.44-41.73-47.27-61.49-112.01-17.1-56.02-27.09-112.36-27.88-128.15-2.5-49.96 9.61-84.78 35.99-103.49 42.94-30.44 113.53-12.22 141.89-2.98-0.41 0.41-0.83 0.78-1.23 1.19-46.55 47.01-45.44 127.32-45.33 132.23 0 1.89 0.16 4.57 0.37 8.26 0.8 13.51 2.29 38.65-1.69 67.12-3.7 26.46 4.46 52.35 22.37 71.05q0.69 0.72 1.4 1.42 0.71 0.7 1.43 1.38 0.73 0.68 1.47 1.35 0.74 0.66 1.49 1.31c-7.97 8.54-25.3 27.43-43.75 49.62zm49.74-66.36c-14.44-15.07-21-36.03-18-57.51 4.21-30.08 2.65-56.27 1.82-70.34-0.12-1.97-0.22-3.7-0.28-5.06 6.8-6.03 38.31-22.91 60.78-17.76 10.25 2.35 16.5 9.33 19.1 21.34 13.44 62.18 1.78 88.1-7.59 108.93-1.93 4.29-3.76 8.34-5.32 12.54l-1.21 3.24c-3.05 8.2-5.9 15.83-7.66 23.07-15.35-0.05-30.29-6.61-41.64-18.45zm156.79 227.57c-36.1 7.74-48.88-10.68-57.3-31.74-5.44-13.6-8.11-74.9-6.22-142.6q0.03-1.36-0.35-2.59-0.08-0.61-0.19-1.21-0.1-0.6-0.23-1.2-0.12-0.6-0.27-1.19-0.15-0.59-0.32-1.18c-2.82-9.85-9.69-18.09-17.93-21.51-3.27-1.36-9.28-3.85-16.5-2 1.54-6.34 4.21-13.51 7.1-21.27l1.22-3.26c1.36-3.68 3.08-7.5 4.9-11.53 9.8-21.79 23.24-51.64 8.66-119.07-5.46-25.25-23.7-37.58-51.34-34.72-16.58 1.72-31.74 8.4-39.3 12.24q-2.43 1.23-4.51 2.39c2.12-25.44 10.09-73 39.92-103.09 18.78-18.94 43.8-28.29 74.28-27.79 60.05 0.99 98.56 31.8 120.29 57.49 18.73 22.12 28.87 44.42 32.91 56.44-30.43-3.09-51.13 2.91-61.62 17.91-22.83 32.64 12.49 95.97 29.46 126.41 3.11 5.58 5.8 10.4 6.64 12.45 5.53 13.4 12.69 22.34 17.91 28.87 1.6 2 3.16 3.94 4.34 5.63-9.22 2.66-25.78 8.8-24.27 39.49-1.22 15.4-9.87 87.5-14.27 112.98-5.8 33.65-18.18 46.19-53.01 53.65zm-154.44-143.71c-4.48-1.12-8.51-3.07-10.88-4.68 1.98-0.93 5.5-2.2 11.59-3.45 29.51-6.08 34.07-10.37 44.02-23 2.29-2.9 4.87-6.18 8.45-10.19h0.01c5.33-5.97 7.77-4.96 12.2-3.12 3.59 1.48 7.08 5.97 8.5 10.92 0.67 2.34 1.42 6.77-1.04 10.22-20.79 29.11-51.09 28.74-72.85 23.3zm305.14-28.73c-9.43 4.37-25.2 7.65-40.19 8.36-16.55 0.77-24.97-1.86-26.96-3.47-0.93-19.13 6.19-21.13 13.73-23.24 1.18-0.34 2.33-0.66 3.45-1.05q1.04 0.85 2.28 1.67c13.31 8.78 37.03 9.73 70.53 2.81l0.37-0.07c-4.52 4.23-12.25 9.89-23.21 14.99z"/>
</svg>