<svg version="1.2" xmlns="http://www.w3.org/2000/svg" viewBox="0 0 256 256" width="256" height="256">
	<defs>
		<linearGradient id="g1" x2="1" gradientUnits="userSpaceOnUse" gradientTransform="matrix(-20.851,50.068,-50.602,-21.074,115.033,126.288)">
			<stop offset="0" stop-color="#ffffff"/>
			<stop offset="1" stop-color="#deddda"/>
		</linearGradient>
		<linearGradient id="g2" x2="1" gradientUnits="userSpaceOnUse" gradientTransform="matrix(-20.851,50.068,-50.602,-21.074,124.725,150.887)">
			<stop offset="0" stop-color="#ffffff"/>
			<stop offset="1" stop-color="#deddda"/>
		</linearGradient>
	</defs>
	<style>
		.s0 { fill: #000000;stroke: #000000;stroke-miterlimit:10 } 
		.s1 { fill: #ffffff;stroke: #ffffff;stroke-miterlimit:10 } 
		.s2 { fill: #707070;stroke: #707070;stroke-miterlimit:10 } 
		.s3 { fill: #b8bab8;stroke: #b8bab8;stroke-miterlimit:10 } 
		.s4 { fill: url(#g1) } 
		.s5 { fill: url(#g2) } 
	</style>
	<path id="Shape 1" fill-rule="evenodd" class="s0" d="m128 256c-70.78 0-128-57.22-128-128 0-70.78 57.22-128 128-128 70.78 0 128 57.22 128 128 0 70.78-57.22 128-128 128z"/>
	<g id="molecule_2">
		<path id="Shape 3" fill-rule="evenodd" class="s1" d="m173.43 85.07c-4.03-8.51-0.41-18.63 8.09-22.66 8.5-4.02 18.63-0.4 22.65 8.1 4.03 8.5 0.41 18.63-8.09 22.65-8.5 4.03-18.63 0.41-22.65-8.09z"/>
		<path id="Shape 2" fill-rule="evenodd" class="s2" d="m139.21 118.28c-8.59-18.15-0.87-39.76 17.28-48.36 18.14-8.59 39.76-0.86 48.35 17.28 8.59 18.15 0.87 39.76-17.28 48.36-18.15 8.59-39.76 0.86-48.35-17.28z"/>
		<path id="Shape 4" fill-rule="evenodd" class="s1" d="m189.19 102.14c1.53-2.99 8.54-15.96 18.3-11.23 9.77 4.74 13.84 16.46 9.1 26.22-4.74 9.77-16.08 13.14-25.84 8.41-9.77-4.74-3.2-20.21-1.56-23.4z"/>
	</g>
	<g id="molecule_3">
		<path id="Shape 3" fill-rule="evenodd" class="s1" d="m76.54 83.32c-8.71 3.55-18.62-0.61-22.17-9.32-3.56-8.71 0.61-18.62 9.32-22.18 8.71-3.55 18.62 0.62 22.17 9.33 3.56 8.7-0.61 18.62-9.32 22.17z"/>
		<path id="Shape 2" fill-rule="evenodd" class="s3" d="m107.83 119.31c-18.59 7.58-39.75-1.31-47.34-19.9-7.58-18.59 1.31-39.75 19.9-47.34 18.59-7.58 39.75 1.31 47.34 19.9 7.58 18.59-1.31 39.75-19.9 47.34z"/>
		<path id="Shape 4" fill-rule="evenodd" class="s1" d="m94.45 68.52c-2.9-1.7-15.47-9.41-10.21-18.9 5.27-9.49 17.19-12.91 26.68-7.64 9.5 5.26 12.24 16.77 6.98 26.26-5.26 9.49-20.35 2.09-23.45 0.28z"/>
	</g>
	<g id="python">
		<path fill-rule="evenodd" class="s4" d="m116.33 126.83c-5.31-2.21-11.34 0.16-13.48 5.3l-2.68 6.43 16.62 6.92-0.74 1.79-24.01-10c-5.31-2.2-11.34 0.17-13.48 5.3l-5.81 13.95c-2.14 5.14 0.43 11.09 5.73 13.3l5.54 2.31 3.28-7.87c2.14-5.14 8.17-7.51 13.48-5.3l17.73 7.38c4.48 1.87 9.59-0.14 11.4-4.48l6.55-15.74c2.14-5.13-0.43-11.09-5.73-13.29zm-6.98 10.52c-1.84-0.77-2.73-2.83-1.99-4.61 0.75-1.78 2.83-2.6 4.67-1.83 1.84 0.76 2.72 2.82 1.98 4.6-0.74 1.78-2.82 2.6-4.66 1.84z"/>
		<path fill-rule="evenodd" class="s5" d="m102.58 200.42c5.3 2.21 11.34-0.17 13.48-5.3l2.68-6.44-16.62-6.92 0.74-1.79 24.01 10c5.3 2.21 11.34-0.16 13.48-5.3l5.8-13.95c2.14-5.13-0.42-11.09-5.73-13.3l-5.54-2.3-3.27 7.87c-2.14 5.13-8.18 7.5-13.48 5.29l-17.73-7.38c-4.49-1.87-9.59 0.14-11.4 4.48l-6.55 15.74c-2.14 5.14 0.42 11.09 5.73 13.3zm4.3-4.09c-1.84-0.76-2.73-2.82-1.99-4.6 0.74-1.78 2.83-2.6 4.67-1.83 1.84 0.76 2.72 2.82 1.98 4.6-0.74 1.78-2.82 2.6-4.66 1.83z"/>
	</g>
</svg>