<svg version="1.2" xmlns="http://www.w3.org/2000/svg" viewBox="0 0 256 256" width="256" height="256">
	<style>
		.s0 { fill: #ffcc00 } 
		.s1 { fill: #b2b2b2 } 
	</style>
	<path class="s0" d="m229.12 3.93c-2.06-5.24-9.45-5.24-11.51 0l-5.51 14.02c-0.63 1.6-1.89 2.87-3.49 3.5l-13.96 5.53c-5.23 2.07-5.23 9.49 0 11.55l13.96 5.53c1.6 0.64 2.86 1.9 3.49 3.5l5.51 14.02c2.06 5.25 9.45 5.25 11.51 0l5.51-14.02c0.63-1.6 1.89-2.86 3.49-3.5l13.96-5.53c5.23-2.06 5.23-9.48 0-11.55l-13.96-5.53c-1.6-0.63-2.86-1.9-3.49-3.5z"/>
	<path class="s0" d="m179.62 78.46c-2.06-5.24-9.45-5.24-11.51 0l-2.01 5.11c-0.63 1.6-1.89 2.87-3.49 3.5l-5.09 2.02c-5.22 2.06-5.22 9.48 0 11.55l5.09 2.02c1.6 0.63 2.86 1.9 3.49 3.5l2.01 5.11c2.06 5.24 9.45 5.24 11.51 0l2.01-5.11c0.63-1.6 1.89-2.87 3.48-3.5l5.1-2.02c5.22-2.07 5.22-9.49 0-11.55l-5.1-2.02c-1.59-0.63-2.85-1.9-3.48-3.5z"/>
	<path class="s1" d="m128 256c70.69 0 128-57.31 128-128 0-5.92-8.88-6.9-11.94-1.83-14.57 24.11-41.03 40.23-71.26 40.23-45.95 0-83.2-37.25-83.2-83.2 0-30.23 16.12-56.69 40.23-71.26 5.07-3.06 4.09-11.94-1.83-11.94-70.69 0-128 57.31-128 128 0 70.69 57.31 128 128 128z"/>
</svg>