<svg version="1.2" xmlns="http://www.w3.org/2000/svg" viewBox="0 0 256 256" width="256" height="256">
	<style>
		.s0 { fill: #ffffff } 
	</style>
	<path id="body" class="s0" d="m27.7 256h200q0.94 0 1.87-0.2 0.92-0.2 1.78-0.58 0.86-0.39 1.63-0.95 0.76-0.55 1.39-1.26 0.52-0.59 0.91-1.28 0.39-0.7 0.63-1.45 0.23-0.76 0.3-1.56 0.07-0.79-0.03-1.57c-1.13-8.72-3.29-17.26-6.45-25.46-3.15-8.2-7.28-15.99-12.29-23.21-5-7.22-10.86-13.81-17.43-19.64-6.58-5.82-13.82-10.84-21.59-14.95-6.65 6.67-14.55 11.95-23.24 15.56-8.69 3.61-18.01 5.46-27.43 5.46-9.41 0-18.73-1.85-27.42-5.46-8.7-3.61-16.6-8.89-23.24-15.56-7.79 4.09-15.07 9.1-21.67 14.92-6.6 5.82-12.48 12.41-17.51 19.63-5.03 7.22-9.18 15.01-12.35 23.22-3.18 8.2-5.36 16.76-6.5 25.49q-0.1 0.78-0.03 1.57 0.07 0.8 0.3 1.56 0.24 0.75 0.63 1.45 0.39 0.69 0.91 1.28 0.65 0.72 1.43 1.29 0.78 0.56 1.66 0.95 0.88 0.38 1.83 0.57 0.95 0.19 1.91 0.18z"/>
	<path id="face" class="s0" d="m178.79 77.6l-3.57 1.71-39.31 17.01q-2.36 0.88-4.85 1.33-2.49 0.45-5.01 0.45-2.53 0-5.02-0.45-2.48-0.45-4.85-1.33l-38.93-16.91-1.39-0.64c-3.64 5.48-6.39 11.49-8.14 17.83-1.75 6.34-2.49 12.91-2.19 19.48 0.31 6.56 1.65 13.04 3.99 19.19 2.33 6.14 5.62 11.88 9.75 17 1.07 1.33 2.19 2.56 3.36 3.78q1.78 1.84 3.63 3.52c5.64 5.07 12.17 9.07 19.25 11.79 7.08 2.71 14.6 4.1 22.19 4.1 7.59 0 15.11-1.39 22.19-4.1 7.08-2.72 13.61-6.72 19.25-11.79q1.85-1.68 3.63-3.52c1.17-1.22 2.29-2.45 3.36-3.78 4.21-5.21 7.55-11.06 9.89-17.33 2.35-6.27 3.66-12.87 3.9-19.56 0.24-6.69-0.6-13.38-2.49-19.8-1.89-6.42-4.81-12.49-8.64-17.98z"/>
	<path id="hat" class="s0" d="m206.63 98.08h13.23l-4.75-15.41v-48c3.2-2.19 2.3-4.86-2.4-6.51l-75.36-26.67q-2.47-0.75-5.02-1.13-2.56-0.37-5.14-0.36-2.59 0.01-5.14 0.42-2.55 0.4-5.02 1.18l-77.28 29.17c-5.6 2.08-5.6 5.34 0 7.63l27.68 10.67v5.33q0.13 2.35 0.86 4.59 0.74 2.24 2.03 4.2 1.29 1.97 3.05 3.53 1.77 1.56 3.88 2.61l38.93 16.96q2.37 0.87 4.86 1.32 2.48 0.44 5.01 0.44 2.52 0 5.01-0.44 2.48-0.45 4.85-1.32l39.31-16.96q2.13-1.05 3.91-2.62 1.77-1.57 3.08-3.55 1.3-1.99 2.03-4.24 0.73-2.26 0.85-4.63v-6.29l26.08-10.99v46.08z"/>
</svg>