<svg width="413" height="413" xmlns="http://www.w3.org/2000/svg" fill="#000000" preserveAspectRatio="xMidYMid" version="1.1">

 <g>
  <title>Layer 1</title>
  <g stroke-width="0" id="SVGRepo_bgCarrier"/>
  <g stroke-linejoin="round" stroke-linecap="round" id="SVGRepo_tracerCarrier"/>
  <ellipse ry="206" rx="205.50001" id="svg_3" cy="207.5" cx="207.00001" stroke="#000" fill="#000000"/>
  <g id="SVGRepo_iconCarrier">
   <g id="svg_1">
    <path id="svg_2" fill="#ffffff" d="m190.23163,76.8175c-3.323,-3.46367 -7.95891,-5.6027 -13.11282,-5.6027c-5.13436,0 -9.73443,2.13903 -13.01834,5.6027l-0.09447,0c-3.31323,3.44677 -5.37545,8.25875 -5.37545,13.58436c0,5.34588 2.06222,10.1173 5.37545,13.5438l0.09447,0.07771c3.28391,3.44678 7.88399,5.56554 13.01834,5.56554c5.15391,0 9.78982,-2.11875 13.11282,-5.56554l0.04887,-0.07771c3.32951,-3.42651 5.37218,-8.19793 5.37218,-13.5438c0,-5.32561 -2.04267,-10.13758 -5.37218,-13.58436l-0.04887,0zm-13.11282,262.64097c5.15391,0 9.78982,-2.1762 13.11282,-5.58242l0.04887,-0.10138c3.32951,-3.39946 5.37218,-8.21144 5.37218,-13.49987c0,-5.34588 -2.04267,-10.13757 -5.37218,-13.60124l-0.04887,0c-3.323,-3.50422 -7.95891,-5.62298 -13.11282,-5.62298c-5.13436,0 -9.73443,2.11875 -13.01834,5.62298l-0.09447,0c-3.31323,3.46367 -5.37545,8.25537 -5.37545,13.60124c0,5.28844 2.06222,10.10041 5.37545,13.49987l0.09447,0.10138c3.28391,3.40622 7.88399,5.58242 13.01834,5.58242zm100.78462,-58.12886c4.58379,-1.24693 8.73427,-4.29834 11.26562,-8.91093l0.34207,-0.67246c2.25117,-4.37605 2.66166,-9.42456 1.45951,-13.89862c-1.21191,-4.79169 -4.18958,-9.0292 -8.62676,-11.68187l-0.25737,-0.1791c-4.32315,-2.45667 -9.24901,-2.99058 -13.77416,-1.72338c-4.60008,1.18947 -8.73102,4.37605 -11.24933,8.95148c-2.55089,4.5315 -3.08518,9.75911 -1.86349,14.57108c1.26079,4.73087 4.20914,9.00893 8.617,11.68187l0.02932,0c4.41763,2.63239 9.42168,3.10886 14.05759,1.86194zm-81.80117,-95.6548c-4.8607,-5.02824 -11.55883,-8.17764 -18.98345,-8.17764c-7.3953,0 -14.07713,3.14941 -18.92807,8.17764c-4.82812,5.01135 -7.80579,11.94207 -7.80579,19.62297c0,7.70118 2.97767,14.65218 7.80579,19.72097c4.85093,4.98769 11.53276,8.11682 18.92807,8.11682c7.42462,0 14.12275,-3.12913 18.98345,-8.11682c4.83789,-5.06879 7.81556,-12.01979 7.81556,-19.72097c0,-7.6809 -2.97767,-14.61162 -7.81556,-19.62297zm-10.67269,-32.70382c10.75739,1.83828 20.43645,7.18416 27.82198,14.90562l0.05864,0c1.17282,1.22664 2.31958,2.55467 3.37838,3.89958l18.46871,-11.08375c-2.48248,-7.78228 -2.5965,-15.91938 -0.6027,-23.54284c2.6356,-10.21868 9.02097,-19.36615 18.5925,-25.1074l0.31602,-0.196c9.46729,-5.56553 20.2312,-6.71446 29.94935,-3.98069c9.83868,2.73039 18.7163,9.38402 24.24161,19.30533l0,0.02028c5.49924,9.86048 6.61668,21.18416 3.99086,31.36228c-2.61605,10.21192 -9.03074,19.42022 -18.59251,25.12091l-2.52157,1.54767l-0.25737,0c-8.84504,4.37268 -18.57296,5.04851 -27.50597,2.61212c-7.33666,-2.02076 -14.06737,-6.25827 -19.3353,-12.29688l-18.43939,11.04995c2.1176,5.81897 3.29368,12.09751 3.29368,18.71059c0,6.5928 -1.17608,12.94907 -3.29368,18.80859l18.43939,11.0094c5.26793,-6.11634 11.99864,-10.27612 19.3353,-12.29688c9.83868,-2.79121 20.7492,-1.60174 30.2849,4.15979l0.60922,0.29737l0,0.04054c9.21318,5.77842 15.39656,14.7299 17.98329,24.82693c2.62582,10.11731 1.50838,21.44436 -3.99086,31.32512l-0.3323,0.69273l-0.03909,-0.06083c-5.5253,9.52595 -14.23026,15.9802 -23.84089,18.71059c-9.8615,2.69322 -20.76875,1.54429 -30.29469,-4.13613l0,-0.0811c-9.57154,-5.74124 -15.95691,-14.909 -18.5925,-25.10402c-1.9938,-7.60318 -1.87977,-15.74365 0.6027,-23.52255l-18.46871,-11.04996c-1.0588,1.34829 -2.20556,2.6155 -3.37838,3.84215l-0.05864,0.05744c-7.38553,7.68429 -17.06458,13.03017 -27.82198,14.81101l0,22.13709c7.6657,1.66256 14.53649,5.64325 19.9217,11.22568l0.02606,0.06083c7.21613,7.44436 11.68263,17.81849 11.68263,29.22325c0,11.3676 -4.4665,21.67752 -11.68263,29.16243l-0.02606,0.11827c-7.26499,7.48491 -17.23724,12.11778 -28.23246,12.11778c-10.93658,0 -20.92187,-4.63287 -28.1673,-12.11778l-0.02606,0l0,-0.11827c-7.2259,-7.48491 -11.70217,-17.79483 -11.70217,-29.16243c0,-11.40477 4.47628,-21.77889 11.70217,-29.22325l0,-0.06083l0.02606,0c5.37544,-5.58242 12.256,-9.56311 19.90216,-11.22568l0,-22.13709c-10.76717,-1.78084 -20.4169,-7.12672 -27.79265,-14.81101l-0.07819,-0.05744c-9.2197,-9.60367 -14.98282,-22.80955 -14.98282,-37.46173c0,-14.61162 5.76312,-27.81751 14.98282,-37.42117l0.07819,0c7.37575,-7.72145 17.02549,-13.06734 27.79265,-14.90562l0,-22.0391c-7.64616,-1.72338 -14.52672,-5.7007 -19.90216,-11.24595l-0.02606,0l0,-0.06083c-7.2259,-7.52208 -11.70217,-17.81848 -11.70217,-29.22325c0,-11.34733 4.47628,-21.74172 11.70217,-29.22664l0.02606,-0.03717c7.24544,-7.50518 17.23073,-12.13806 28.1673,-12.13806c10.99522,0 20.96748,4.63287 28.23246,12.13806l0,0.03717l0.02606,0c7.21613,7.48491 11.68263,17.87931 11.68263,29.22664c0,11.40477 -4.4665,21.70117 -11.68263,29.22325l-0.02606,0.06083c-5.38521,5.54525 -12.256,9.52257 -19.9217,11.24595l0,22.0391zm103.73948,-14.69273l-0.15312,-0.23655c-2.55089,-4.45715 -6.61667,-7.42746 -11.1125,-8.71494c-4.63591,-1.26719 -9.63996,-0.7299 -14.08691,1.90249l0.02932,0c-4.43718,2.61212 -7.40508,6.89017 -8.64632,11.68187c-1.22169,4.75115 -0.6874,9.99903 1.86349,14.57108l0.0847,0.12165c2.55741,4.51122 6.6232,7.53898 11.16463,8.76562c4.56424,1.32802 9.64973,0.77383 14.03153,-1.87884l0.23782,-0.11827c4.31339,-2.67293 7.1868,-6.89017 8.38894,-11.52304c1.22169,-4.77142 0.73628,-9.99903 -1.80158,-14.57108z"/>
   </g>
  </g>
 </g>
</svg>