<svg version="1.2" xmlns="http://www.w3.org/2000/svg" viewBox="0 0 2480.8139534883717 2480.8139534883717" width="256" height="256">
	<defs>
		<linearGradient id="g1" x2="1" gradientUnits="userSpaceOnUse" gradientTransform="matrix(-480.102,-593.194,-578.212,467.977,1271.852,1405.058)">
			<stop offset=".06" stop-color="#4f4f4f"/>
			<stop offset=".21" stop-color="#505050"/>
			<stop offset=".37" stop-color="#5c5c5c"/>
			<stop offset=".54" stop-color="#6b6b6b"/>
			<stop offset=".71" stop-color="#6b6b6b"/>
			<stop offset=".88" stop-color="#727272"/>
			<stop offset=".97" stop-color="#838383"/>
		</linearGradient>
		<linearGradient id="g2" x2="1" gradientUnits="userSpaceOnUse" gradientTransform="matrix(240.587,-556.409,-399.811,-172.875,726.276,1922.778)">
			<stop offset=".06" stop-color="#777777"/>
			<stop offset=".2" stop-color="#888888"/>
			<stop offset=".35" stop-color="#888888"/>
			<stop offset=".51" stop-color="#999999"/>
			<stop offset=".68" stop-color="#aaaaaa"/>
			<stop offset=".85" stop-color="#aaaaaa"/>
			<stop offset=".97" stop-color="#bbbbbb"/>
		</linearGradient>
		<linearGradient id="g3" x2="1" gradientUnits="userSpaceOnUse" gradientTransform="matrix(470.222,603.193,-816.61,636.592,1056.264,-7198.69)">
			<stop offset=".06" stop-color="#0cb0f2"/>
			<stop offset=".2" stop-color="#0db2ee"/>
			<stop offset=".35" stop-color="#12b7e0"/>
			<stop offset=".51" stop-color="#19c0ca"/>
			<stop offset=".68" stop-color="#bbbbbb"/>
			<stop offset=".85" stop-color="#dddddd"/>
			<stop offset=".97" stop-color="#ffffff"/>
		</linearGradient>
	</defs>
	<style>
		.s0 { fill: #000000 } 
		.s1 { fill: url(#g1) } 
		.s2 { fill: #7d7d7d } 
		.s3 { fill: url(#g2) } 
		.s4 { fill: url(#g3) } 
		.s5 { fill: #2e2e2e } 
		.s6 { fill: #ffffff } 
	</style>
	<path id="Shape 1" fill-rule="evenodd" class="s0" d="m1240.41 2480.81c-685.95 0-1240.41-554.46-1240.41-1240.4 0-685.95 554.46-1240.41 1240.41-1240.41 685.94 0 1240.4 554.46 1240.4 1240.41 0 685.94-554.46 1240.4-1240.4 1240.4z"/>
	<g id="Layer 1">
		<path class="s1" d="m1024.12 513.3q-7.84-3.93-15.9-7.4-8.06-3.46-16.31-6.44-8.25-2.99-16.66-5.48-8.41-2.49-16.96-4.49c-305.94-72.61-533.31 227.38-408.32 499.99 1.19 1.19 222.61 486.88 258.33 564.26 0 0 407.13-186.9 490.46-378.56 77.14-178.56-52.98-504.5-76.79-553.43z"/>
		<path class="s2" d="m1943.97 1055.07c-6.43-9.86-13.46-19.32-21.04-28.32-7.58-9.01-15.7-17.54-24.32-25.56-8.62-8.02-17.72-15.5-27.25-22.41-9.53-6.92-19.47-13.24-29.77-18.94-1.19 0-286.89-157.14-286.89-157.14 0 0-980.92 568.67-981.99 570.22-110.71 126.18-135.71 326.18-8.33 499.98 9.52 12.96 20.07 25.13 31.54 36.4 11.47 11.27 23.83 21.6 36.96 30.9 13.13 9.29 26.98 17.51 41.43 24.58 14.44 7.07 29.43 12.97 44.82 17.64 115.48 35.71 217.85 21.43 303.56-23.81 2.38-1.19 805.93-427.37 808.31-429.75 157.02-82.14 229.75-291.65 112.97-473.79z"/>
		<path class="s3" d="m934.84 930.19l-261.9 321.42-101.54 121.31c-110.71 126.18-135.71 326.18-8.33 499.98 9.52 12.96 20.07 25.13 31.54 36.4 11.48 11.27 23.84 21.6 36.96 30.9 13.13 9.29 26.98 17.51 41.43 24.58 14.44 7.07 29.43 12.97 44.82 17.64 115.48 35.71 219.04 21.43 304.75-23.81 0 0 20.24-10.71 54.76-29.76 108.81-58.81 258.92-454.15 361.3-759.86z"/>
		<path class="s4" d="m1346.49 1239.59l208.21-439.63q0-0.24 0.09-0.46 0.09-0.21 0.26-0.38 0.17-0.17 0.38-0.26 0.22-0.09 0.46-0.09c1.19-3.57 17.86-46.43 19.05-48.81 6.09-15.38 10.28-31.46 12.46-47.86 2.18-16.4 2.35-33.01 0.49-49.46-1.87-16.44-5.74-32.59-11.53-48.09-5.8-15.5-13.47-30.24-22.85-43.87-5.93-9.39-12.77-18.18-20.41-26.23-7.65-8.06-16.07-15.35-25.13-21.77-9.07-6.42-18.74-11.93-28.88-16.46-10.14-4.53-20.7-8.06-31.53-10.53-18.33-4.88-37.27-7.06-56.22-6.48-18.96 0.59-37.73 3.93-55.72 9.93-17.99 6-35.01 14.58-50.53 25.49-15.51 10.9-29.36 24.01-41.09 38.91-1.19 1.19-46.43 53.57-46.43 53.57l-333.32 410.7z"/>
		<g>
			<path class="s5" d="m763.06 763.41h952.35v952.35h-952.35z"/>
			<path class="s6" d="m986.86 974.12h-128.57v-83.33h348.8v83.33h-127.37v328.44h-92.86zm220.23 123.45c0-119.04 88.09-215.47 215.47-215.47 77.38 0 125 26.19 163.09 64.28l-58.33 66.67c-32.14-28.57-64.28-46.43-105.95-46.43-69.04 0-120.23 58.33-120.23 128.57v1.19c0 71.43 48.8 129.76 120.23 129.76 47.62 0 76.19-19.05 108.33-48.81l58.33 58.33c-42.85 45.24-89.28 73.81-169.04 73.81-28 0.63-55.84-4.42-81.83-14.84-26-10.42-49.61-26.01-69.42-45.81-19.8-19.81-35.39-43.42-45.81-69.42-10.43-25.99-15.47-53.83-14.84-81.83zm-348.8 427.72h348.8v63.1h-348.8z"/>
		</g>
	</g>
</svg>